<svg width="299" height="45" viewBox="0 0 299 45" fill="none" xmlns="http://www.w3.org/2000/svg">
<path d="M71.1934 43.9267H82.0146V13.0541H71.1934V43.9267ZM214.204 11.9886C210.291 11.9512 206.42 12.7989 202.88 14.4681L202.485 13.0512H193.845V43.9267H204.666V22.4817C211.597 18.1033 218.873 19.2153 218.873 26.8369V43.9238H229.694V22.4817C236.624 18.1033 243.901 19.2153 243.901 26.8369V43.9151H254.725V24.7261C254.725 19.1282 250.773 11.9915 239.235 11.9915C234.116 11.9915 229.944 13.2342 225.62 15.6382C223.167 13.4809 219.482 11.9915 214.207 11.9915L214.204 11.9886ZM47.5214 44.9865C32.8473 44.9633 27.4642 38.3869 27.4642 28.5442C27.4642 18.7014 32.8473 12.1337 47.5214 12.0989C62.1956 12.1337 67.5873 18.7014 67.5873 28.5442C67.5873 38.3869 62.1956 44.9633 47.5214 44.9865ZM56.7661 28.5442C56.7661 22.6908 53.25 20.4144 47.5214 20.3796C41.7929 20.4028 38.2884 22.7024 38.2884 28.5442C38.2884 34.3859 41.7813 36.6913 47.5214 36.7087C53.25 36.6826 56.7661 34.3859 56.7661 28.5354V28.5442ZM11.3674 31.6218C11.3674 22.0404 19.7875 21.0706 25.1124 23.0624L27.4642 12.8393C21.367 11.4892 14.1083 11.9682 10.5196 17.8274L9.42498 13.0541H0.551971V43.9267H11.3761L11.3674 31.6218ZM105.983 11.9915C102.07 11.955 98.199 12.8026 94.6593 14.471L94.2731 13.0541H85.6237V43.9267H96.4449V22.4817C103.375 18.1033 110.652 19.2153 110.652 26.8369V43.9238H121.476V22.4817C128.403 18.1033 135.688 19.2153 135.688 26.8369V43.9151H146.504V24.7261C146.504 19.1282 142.552 11.9915 131.014 11.9915C125.895 11.9915 121.723 13.2342 117.399 15.6382C114.949 13.4809 111.261 11.9915 105.986 11.9915H105.983ZM82.9699 5.62126C82.9699 1.58834 80.5513 0.0175619 76.5997 0.000141118C72.648 -0.0172797 70.2353 1.57672 70.2353 5.62126C70.2353 9.66579 72.6538 11.2366 76.5968 11.2511C80.5397 11.2656 82.967 9.65418 82.967 5.62126H82.9699ZM170.17 44.972C173.983 44.9602 177.749 44.117 181.203 42.5011L181.598 43.9093H190.247V28.5209C190.247 18.6782 184.856 12.0786 170.181 12.0786C155.507 12.0786 150.124 18.6782 150.124 28.5209C150.124 46.5224 170.158 44.9662 170.181 44.9662L170.17 44.972ZM179.406 28.5267V34.4701C177.338 36.009 174.179 36.7 170.161 36.7C164.433 36.7 160.928 34.3772 160.928 28.5267C160.928 22.6762 164.433 20.3622 170.161 20.3622C175.89 20.3622 179.406 22.685 179.406 28.5267ZM278.382 44.972C282.196 44.9602 285.961 44.117 289.415 42.5011L289.81 43.9093H298.448V28.5209C298.448 18.6782 293.065 12.0786 278.391 12.0786C263.717 12.0786 258.325 18.6782 258.325 28.5209C258.325 46.5224 278.359 44.9662 278.391 44.9662L278.382 44.972ZM287.615 28.5267V34.4701C285.551 36.009 282.389 36.7 278.382 36.7C272.654 36.7 269.14 34.3772 269.14 28.5267C269.14 22.6762 272.654 20.3622 278.382 20.3622C284.111 20.3622 287.615 22.685 287.615 28.5267Z" fill="black"/>
</svg>
