<svg width="40" height="32" viewBox="0 0 40 32" fill="none" xmlns="http://www.w3.org/2000/svg">
<path d="M2.112 31.3908L0 25.6308C2.432 24.7348 4.448 23.5828 6.048 22.1748C7.712 20.7668 8.96 19.3588 9.792 17.9508C10.624 16.4788 11.04 15.2628 11.04 14.3028C10.976 14.3028 10.88 14.3028 10.752 14.3028C10.688 14.3028 10.592 14.3028 10.464 14.3028C8.48 14.3028 6.848 13.7908 5.568 12.7668C4.288 11.6788 3.648 10.1748 3.648 8.25481C3.648 6.20681 4.352 4.38281 5.76 2.78281C7.232 1.18281 9.184 0.382812 11.616 0.382812C13.792 0.382812 15.52 1.21481 16.8 2.87881C18.08 4.47881 18.72 6.75081 18.72 9.69481C18.72 13.4708 17.952 16.8308 16.416 19.7748C14.88 22.6548 12.864 25.0868 10.368 27.0708C7.872 28.9908 5.12 30.4308 2.112 31.3908ZM23.136 31.3908L21.024 25.6308C23.456 24.7348 25.472 23.5828 27.072 22.1748C28.736 20.7668 29.984 19.3588 30.816 17.9508C31.648 16.4788 32.064 15.2628 32.064 14.3028C32 14.3028 31.904 14.3028 31.776 14.3028C31.712 14.3028 31.616 14.3028 31.488 14.3028C29.504 14.3028 27.872 13.7908 26.592 12.7668C25.312 11.6788 24.672 10.1748 24.672 8.25481C24.672 6.20681 25.376 4.38281 26.784 2.78281C28.256 1.18281 30.208 0.382812 32.64 0.382812C34.816 0.382812 36.544 1.21481 37.824 2.87881C39.104 4.47881 39.744 6.75081 39.744 9.69481C39.744 13.4708 38.976 16.8308 37.44 19.7748C35.904 22.6548 33.888 25.0868 31.392 27.0708C28.896 28.9908 26.144 30.4308 23.136 31.3908Z" fill="url(#paint0_linear_362_2215)"/>
<defs>
<linearGradient id="paint0_linear_362_2215" x1="0" y1="0.382812" x2="-0.48054" y2="30.7544" gradientUnits="userSpaceOnUse">
<stop stop-color="#1851DF"/>
<stop offset="1" stop-color="#0047BB"/>
</linearGradient>
</defs>
</svg>
