<svg width="40" height="202" viewBox="0 0 40 202" fill="none" xmlns="http://www.w3.org/2000/svg">
<path d="M29.3668 202C24.0607 202 19.5169 200.109 15.7355 196.328C12.0151 192.607 10.1549 188.155 10.1549 182.971V120.212C10.1549 117.955 9.484 115.76 8.14221 113.625L0.640398 103.196C0.213466 102.525 0 101.793 0 101C0 100.146 0.213466 99.4143 0.640398 98.8044L8.14221 88.375C9.484 86.2403 10.1549 84.0447 10.1549 81.788V19.212C10.1549 13.9058 12.0151 9.39252 15.7355 5.6721C19.5169 1.8907 24.0607 0 29.3668 0H39.2473V5.68478H29.3668C26.1954 5.68478 22.4813 7.8131 20.2246 10.0697C17.968 12.2654 15.8397 15.9795 15.8397 19.212V81.788C15.8397 85.8744 14.6809 89.5338 12.3632 92.7663L6.50815 101L12.3632 109.234C14.6809 112.466 15.8397 116.126 15.8397 120.212V182.971C15.8397 186.082 17.968 189.735 20.2246 191.93C22.4813 194.187 26.1954 196.315 29.3668 196.315H39.2473V202H29.3668Z" fill="#0047BB"/>
</svg>
