<svg width="60" height="61" viewBox="0 0 60 61" fill="none" xmlns="http://www.w3.org/2000/svg">
<path fill-rule="evenodd" clip-rule="evenodd" d="M0.00276271 25.8672H15.4064V41.1096H0.00276271V25.8672ZM39.747 60.7737H55.1507V45.5313H39.747V60.7737ZM35.2785 60.7737H19.8749V45.5313H35.2785V60.7737ZM0.00276271 60.7737H15.4064V45.5313H0.00276271V60.7737ZM40.7461 15.3442L55.4625 19.826L60 5.25544L45.2781 0.773682L40.7461 15.3442ZM35.5021 20.73L20.2779 18.4631L22.5631 3.39008L37.7957 5.65693L35.5021 20.73ZM0 21.4428H15.4037V6.20315H0.00276271L0 21.4428ZM39.7442 25.8645H55.1479V41.1069H39.747L39.7442 25.8645ZM35.2758 25.8645H19.8749V41.1069H35.2785L35.2758 25.8645Z" fill="#0055FF"/>
</svg>
