<svg width="60" height="61" viewBox="0 0 60 61" fill="none" xmlns="http://www.w3.org/2000/svg">
<path d="M33.3894 34.7585C51.6395 31.031 61.8896 39.606 59.7096 49.0386C57.5296 58.4712 46.9595 60.7737 32.2469 60.7737C17.5343 60.7737 -1.18831 58.9112 0.0591997 48.8911C1.30671 38.871 15.1393 38.486 33.3894 34.7585ZM27.1169 35.851C38.852 33.851 45.287 30.101 44.452 24.8735C43.862 21.2159 40.8095 17.6584 32.9519 16.0009C27.2019 14.7834 20.9044 14.0734 15.4243 15.9309C9.47928 17.9309 7.08426 23.3985 6.94926 28.0485C6.67426 38.006 17.7993 37.446 27.1044 35.851H27.1169ZM31.0844 15.5609C25.2394 14.1859 21.0843 8.95586 26.7544 4.52083C32.4244 0.0858059 34.9269 -0.0441951 39.3545 2.21832C43.782 4.48083 47.632 12.3434 44.572 15.1084C41.512 17.8734 36.9319 16.9434 31.0719 15.5609H31.0844Z" fill="#0055FF"/>
</svg>
