<svg width="61" height="61" viewBox="0 0 61 61" fill="none" xmlns="http://www.w3.org/2000/svg">
<path fill-rule="evenodd" clip-rule="evenodd" d="M30 0.773438C34.6531 0.773232 39.2426 1.85543 43.4054 3.93447C47.5683 6.01352 51.1904 9.03241 53.9856 12.7525C56.7807 16.4726 58.6722 20.7919 59.5105 25.3689C60.3488 29.9459 60.1108 34.6552 58.8155 39.1244C57.5203 43.5937 55.2031 47.7004 52.0473 51.1198C48.8915 54.5392 44.9835 57.1777 40.6323 58.8266C36.2811 60.4756 31.606 61.0897 26.9765 60.6206C22.3471 60.1514 17.8902 58.6118 13.9583 56.1234L0 60.7734L4.65001 46.8151C1.77894 42.2779 0.178177 37.0533 0.0147502 31.6865C-0.148677 26.3198 1.13123 21.0075 3.72091 16.304C6.31058 11.6005 10.1151 7.67828 14.7375 4.94651C19.3599 2.21474 24.6307 0.773587 30 0.773438ZM20 36.7734C20 38.0995 19.4732 39.3713 18.5355 40.309C17.5978 41.2466 16.3261 41.7734 15 41.7734C13.6739 41.7734 12.4022 41.2466 11.4645 40.309C10.5268 39.3713 10 38.0995 10 36.7734V32.0234C10 30.6973 10.5268 29.4256 11.4645 28.4879C12.4022 27.5502 13.6739 27.0234 15 27.0234C16.3261 27.0234 17.5978 27.5502 18.5355 28.4879C19.4732 29.4256 20 30.6973 20 32.0234V36.7734ZM35 36.7734C35 38.0995 34.4732 39.3713 33.5355 40.309C32.5978 41.2466 31.3261 41.7734 30 41.7734C28.6739 41.7734 27.4022 41.2466 26.4645 40.309C25.5268 39.3713 25 38.0995 25 36.7734V18.4401C25 17.114 25.5268 15.8423 26.4645 14.9046C27.4022 13.9669 28.6739 13.4401 30 13.4401C31.3261 13.4401 32.5978 13.9669 33.5355 14.9046C34.4732 15.8423 35 17.114 35 18.4401V36.7734ZM40 36.7734C40 38.0995 40.5268 39.3713 41.4645 40.309C42.4022 41.2466 43.6739 41.7734 45 41.7734C46.3261 41.7734 47.5978 41.2466 48.5355 40.309C49.4732 39.3713 50 38.0995 50 36.7734V26.4734C50 25.1473 49.4732 23.8756 48.5355 22.9379C47.5978 22.0002 46.3261 21.4734 45 21.4734C43.6739 21.4734 42.4022 22.0002 41.4645 22.9379C40.5268 23.8756 40 25.1473 40 26.4734V36.7734Z" fill="#0055FF"/>
</svg>
