<svg width="60" height="61" viewBox="0 0 60 61" fill="none" xmlns="http://www.w3.org/2000/svg">
<path fill-rule="evenodd" clip-rule="evenodd" d="M50.1467 14.7738L54.5491 13.5234C55.5702 14.9764 56.4594 16.5177 57.2061 18.129L53.9135 21.3174C54.6282 23.1468 55.1385 25.0495 55.4348 26.991L59.8788 28.0955C60.0403 29.8702 60.0403 31.6558 59.8788 33.4305L55.4348 34.535C55.1449 36.4779 54.6345 38.3813 53.9135 40.2086L57.2061 43.3814C56.4559 44.9959 55.5669 46.5421 54.5491 48.0026L50.1311 46.7523C48.9093 48.2874 47.5239 49.6849 45.9996 50.9202L47.25 55.3226C45.797 56.3437 44.2557 57.2329 42.6445 57.9796L39.456 54.6869C37.6267 55.4017 35.7239 55.9119 33.7824 56.2083L32.6779 60.6523C30.9085 60.8138 29.128 60.8138 27.3586 60.6523L26.2384 56.2083C24.2956 55.9184 22.3921 55.408 20.5648 54.6869L17.392 57.9796C15.7815 57.2283 14.2388 56.3393 12.7813 55.3226L14.0368 50.9045C12.4943 49.691 11.0959 48.3048 9.86886 46.7731L5.45087 48.0235C4.43357 46.5681 3.54456 45.0271 2.79382 43.4179L6.08646 40.2294C5.37172 38.4001 4.86156 36.4974 4.56521 34.5559L0.121134 33.4513C-0.0403779 31.6819 -0.0403779 29.9015 0.121134 28.132L4.56521 27.0119C4.86248 25.0706 5.37261 23.1679 6.08646 21.3383L2.79382 18.1655C3.54453 16.5514 4.43904 15.0083 5.46651 13.5547L9.86886 14.8103C11.0824 13.2678 12.4686 11.8694 14.0004 10.6423L12.75 6.22434C14.2054 5.20704 15.7463 4.318 17.3555 3.56726L20.544 6.85993C22.3733 6.14519 24.2761 5.635 26.2176 5.33864L27.3221 0.894571C29.0967 0.73306 30.8824 0.73306 32.657 0.894571L33.7615 5.33864C35.7028 5.63591 37.6055 6.14608 39.4351 6.85993L42.608 3.56726C44.2239 4.32075 45.7703 5.2151 47.2292 6.23995L45.9788 10.6423C47.5139 11.8642 48.9115 13.2495 50.1467 14.7738ZM18.585 30.7578L35.189 18.999V24.8758H46.0882C44.7052 21.102 42.0379 17.9356 38.5538 15.9317C35.0697 13.9279 30.9914 13.2146 27.034 13.9169C23.0767 14.6192 19.4928 16.6922 16.911 19.7726C14.3292 22.8529 12.9142 26.7438 12.9142 30.763C12.9142 34.7822 14.3292 38.6732 16.911 41.7535C19.4928 44.8338 23.0767 46.9069 27.034 47.6092C30.9914 48.3115 35.0697 47.5981 38.5538 45.5943C42.0379 43.5905 44.7052 40.424 46.0882 36.6502H35.189V42.527L18.585 30.7578Z" fill="#0055FF"/>
</svg>
