<svg width="200" height="46" viewBox="0 0 200 46" fill="none" xmlns="http://www.w3.org/2000/svg">
<path d="M0 23.1953C0 14.7838 0 10.578 1.74749 7.44531C2.8923 5.39305 4.53888 3.68884 6.52174 2.50397C9.54849 0.695312 13.612 0.695312 21.7391 0.695312H178.261C186.388 0.695312 190.452 0.695312 193.478 2.50397C195.461 3.68884 197.108 5.39305 198.253 7.44531C200 10.578 200 14.7838 200 23.1953V23.1953C200 31.6069 200 35.8126 198.253 38.9453C197.108 40.9976 195.461 42.7018 193.478 43.8867C190.452 45.6953 186.388 45.6953 178.261 45.6953H21.7391C13.612 45.6953 9.54849 45.6953 6.52174 43.8867C4.53888 42.7018 2.8923 40.9976 1.74749 38.9453C0 35.8126 0 31.6069 0 23.1953V23.1953Z" fill="#0047BB"/>
<path d="M58.6214 31.4622H64.3378V14.5827H58.6214V31.4622ZM134.168 14C132.101 13.9796 130.056 14.4431 128.186 15.3557L127.978 14.5811H123.413V31.4622H129.13V19.7372C132.791 17.3433 136.634 17.9513 136.634 22.1184V31.4606H142.351V19.7372C146.012 17.3433 149.856 17.9513 149.856 22.1184V31.4559H155.574V20.9643C155.574 17.9036 153.486 14.0016 147.391 14.0016C144.687 14.0016 142.483 14.6811 140.199 15.9955C138.903 14.816 136.956 14.0016 134.17 14.0016L134.168 14ZM46.1164 32.0416C38.3647 32.0289 35.521 28.4333 35.521 23.0518C35.521 17.6703 38.3647 14.0794 46.1164 14.0604C53.8682 14.0794 56.7164 17.6703 56.7164 23.0518C56.7164 28.4333 53.8682 32.0289 46.1164 32.0416ZM51 23.0518C51 19.8515 49.1426 18.6069 46.1164 18.5878C43.0903 18.6005 41.239 19.8578 41.239 23.0518C41.239 26.2458 43.0841 27.5062 46.1164 27.5158C49.1426 27.5015 51 26.2458 51 23.047V23.0518ZM27.0177 24.7345C27.0177 19.4959 31.4657 18.9657 34.2787 20.0547L35.521 14.4652C32.3001 13.727 28.4656 13.9889 26.5698 17.1925L25.9916 14.5827H21.3044V31.4622H27.0223L27.0177 24.7345ZM76.9992 14.0016C74.9321 13.9817 72.8874 14.4451 71.0175 15.3573L70.8135 14.5827H66.2443V31.4622H71.9607V19.7372C75.6219 17.3433 79.4656 17.9513 79.4656 22.1184V31.4606H85.1835V19.7372C88.8431 17.3433 92.6914 17.9513 92.6914 22.1184V31.4559H98.4048V20.9643C98.4048 17.9036 96.3173 14.0016 90.222 14.0016C87.5179 14.0016 85.3139 14.6811 83.0301 15.9955C81.7356 14.816 79.7877 14.0016 77.0008 14.0016H76.9992ZM64.8424 10.5187C64.8424 8.31373 63.5648 7.45491 61.4773 7.44539C59.3898 7.43586 58.1152 8.30738 58.1152 10.5187C58.1152 12.7301 59.3929 13.5889 61.4758 13.5968C63.5586 13.6048 64.8409 12.7237 64.8409 10.5187H64.8424ZM110.907 32.0337C112.921 32.0273 114.91 31.5663 116.735 30.6828L116.944 31.4527H121.513V23.0391C121.513 17.6576 118.665 14.0493 110.913 14.0493C103.161 14.0493 100.317 17.6576 100.317 23.0391C100.317 32.8814 110.901 32.0305 110.913 32.0305L110.907 32.0337ZM115.786 23.0423V26.2918C114.694 27.1332 113.025 27.511 110.902 27.511C107.876 27.511 106.025 26.241 106.025 23.0423C106.025 19.8435 107.876 18.5783 110.902 18.5783C113.928 18.5783 115.786 19.8483 115.786 23.0423ZM168.071 32.0337C170.085 32.0273 172.074 31.5663 173.899 30.6828L174.108 31.4527H178.671V23.0391C178.671 17.6576 175.827 14.0493 168.076 14.0493C160.324 14.0493 157.476 17.6576 157.476 23.0391C157.476 32.8814 168.059 32.0305 168.076 32.0305L168.071 32.0337ZM172.948 23.0423V26.2918C171.858 27.1332 170.188 27.511 168.071 27.511C165.045 27.511 163.189 26.241 163.189 23.0423C163.189 19.8435 165.045 18.5783 168.071 18.5783C171.097 18.5783 172.948 19.8483 172.948 23.0423Z" fill="white"/>
</svg>
