<svg width="45" height="46" viewBox="0 0 45 46" fill="none" xmlns="http://www.w3.org/2000/svg">
<path d="M41.6699 0.234826H3.32988C1.49988 0.204826 0.0298779 1.67483 -0.00012207 3.47483V41.9948C0.0298779 43.7948 1.49988 45.2648 3.32988 45.2348H41.6699C43.4999 45.2648 44.9699 43.7948 44.9999 41.9948V3.47483C44.9699 1.67483 43.4699 0.204826 41.6699 0.234826Z" fill="#0A66C2"/>
<path d="M38.3398 38.575H31.6798V28.135C31.6798 25.645 31.6498 22.435 28.1998 22.435C24.7198 22.435 24.2098 25.135 24.2098 27.955V38.575H17.5498V17.095H23.9398V20.035H24.0298C25.3498 17.815 27.7498 16.465 30.3598 16.555C37.1098 16.555 38.3698 20.995 38.3698 26.785L38.3398 38.575ZM10.0198 14.155C7.88984 14.155 6.14984 12.415 6.14984 10.285C6.14984 8.15504 7.88984 6.41504 10.0198 6.41504C12.1498 6.41504 13.8898 8.15504 13.8898 10.285C13.8898 12.445 12.1498 14.155 10.0198 14.155ZM13.3498 38.575H6.65984V17.095H13.3198V38.575H13.3498Z" fill="white"/>
</svg>
