<svg width="20" height="25" viewBox="0 0 20 25" fill="none" xmlns="http://www.w3.org/2000/svg">
<path fill-rule="evenodd" clip-rule="evenodd" d="M9.79667 24.6953C5.66667 20.972 0 17.192 0 10.6953C0 8.04315 1.05357 5.49961 2.92893 3.62425C4.8043 1.74888 7.34784 0.695312 10 0.695312C12.6522 0.695312 15.1957 1.74888 17.0711 3.62425C18.9464 5.49961 20 8.04315 20 10.6953C20 17.1953 14.3333 20.9753 10.1933 24.6953H9.79667ZM9.99666 7.36198C9.33739 7.36198 8.69294 7.55747 8.14478 7.92375C7.59661 8.29002 7.16937 8.81061 6.91707 9.4197C6.66478 10.0288 6.59876 10.699 6.72738 11.3456C6.85599 11.9922 7.17347 12.5862 7.63965 13.0523C8.10582 13.5185 8.69977 13.836 9.34637 13.9646C9.99298 14.0932 10.6632 14.0272 11.2723 13.7749C11.8814 13.5226 12.402 13.0954 12.7682 12.5472C13.1345 11.999 13.33 11.3546 13.33 10.6953C13.33 9.81126 12.9788 8.96341 12.3537 8.33829C11.7286 7.71317 10.8807 7.36198 9.99666 7.36198V7.36198Z" fill="#0055FF"/>
</svg>
