<svg width="159" height="25" viewBox="0 0 159 25" fill="none" xmlns="http://www.w3.org/2000/svg">
<path d="M37.6754 23.9276H43.4467V7.46221H37.6754V23.9276ZM113.948 6.8939C111.861 6.87399 109.796 7.32607 107.908 8.21634L107.698 7.46066H103.089V23.9276H108.861V12.4902C112.557 10.1551 116.438 10.7482 116.438 14.813V23.926H122.209V12.4902C125.905 10.1551 129.786 10.7482 129.786 14.813V23.9214H135.559V13.6873C135.559 10.7017 133.451 6.89545 127.297 6.89545C124.567 6.89545 122.342 7.55822 120.036 8.84039C118.728 7.68984 116.763 6.89545 113.949 6.89545L113.948 6.8939ZM25.0504 24.4928C17.2242 24.4804 14.3532 20.973 14.3532 15.7236C14.3532 10.4741 17.2242 6.97133 25.0504 6.95274C32.8766 6.97133 35.7522 10.4741 35.7522 15.7236C35.7522 20.973 32.8766 24.4804 25.0504 24.4928ZM29.9808 15.7236C29.9808 12.6017 28.1056 11.3877 25.0504 11.3691C21.9951 11.3815 20.1261 12.6079 20.1261 15.7236C20.1261 18.8392 21.9889 20.0687 25.0504 20.078C28.1056 20.064 29.9808 18.8392 29.9808 15.7189V15.7236ZM5.76823 17.365C5.76823 12.2549 10.2589 11.7377 13.0989 12.7999L14.3532 7.34762C11.1013 6.62756 7.23002 6.88306 5.31606 10.008L4.73227 7.46221H0V23.9276H5.77287L5.76823 17.365ZM56.2298 6.89545C54.1428 6.87602 52.0784 7.32808 50.1905 8.21789L49.9846 7.46221H45.3716V23.9276H51.1429V12.4902C54.8392 10.1551 58.7198 10.7482 58.7198 14.813V23.926H64.4926V12.4902C68.1874 10.1551 72.0726 10.7482 72.0726 14.813V23.9214H77.8409V13.6873C77.8409 10.7017 75.7333 6.89545 69.5795 6.89545C66.8495 6.89545 64.6243 7.55822 62.3185 8.84039C61.0116 7.68984 59.045 6.89545 56.2313 6.89545H56.2298ZM43.9562 3.498C43.9562 1.34711 42.6663 0.509366 40.5588 0.500075C38.4512 0.490784 37.1644 1.34092 37.1644 3.498C37.1644 5.65509 38.4543 6.49284 40.5572 6.50058C42.6601 6.50832 43.9547 5.64889 43.9547 3.498H43.9562ZM90.4628 24.4851C92.4968 24.4788 94.5049 24.0291 96.3472 23.1673L96.5578 23.9183H101.171V15.7112C101.171 10.4617 98.2952 6.94191 90.469 6.94191C82.6428 6.94191 79.7719 10.4617 79.7719 15.7112C79.7719 25.312 90.4566 24.482 90.469 24.482L90.4628 24.4851ZM95.3887 15.7143V18.8841C94.2861 19.7048 92.6013 20.0733 90.4582 20.0733C87.403 20.0733 85.5339 18.8345 85.5339 15.7143C85.5339 12.594 87.403 11.3598 90.4582 11.3598C93.5134 11.3598 95.3887 12.5986 95.3887 15.7143ZM148.176 24.4851C150.21 24.4788 152.218 24.0291 154.06 23.1673L154.271 23.9183H158.878V15.7112C158.878 10.4617 156.007 6.94191 148.181 6.94191C140.355 6.94191 137.479 10.4617 137.479 15.7112C137.479 25.312 148.164 24.482 148.181 24.482L148.176 24.4851ZM153.1 15.7143V18.8841C151.999 19.7048 150.313 20.0733 148.176 20.0733C145.121 20.0733 143.247 18.8345 143.247 15.7143C143.247 12.594 145.121 11.3598 148.176 11.3598C151.231 11.3598 153.1 12.5986 153.1 15.7143Z" fill="#0047BB"/>
<path d="M29.9808 15.7235C29.9808 12.6017 28.1056 11.3877 25.0504 11.3691C21.9951 11.3815 20.1261 12.6079 20.1261 15.7235C20.1261 18.8392 21.9889 20.0687 25.0504 20.078C28.1056 20.064 29.9808 18.8392 29.9808 15.7189V15.7235Z" fill="#FFC700"/>
</svg>
