<svg width="20" height="21" viewBox="0 0 20 21" fill="none" xmlns="http://www.w3.org/2000/svg">
<g clip-path="url(#clip0_556_1061)">
<path fill-rule="evenodd" clip-rule="evenodd" d="M9.99866 12.4841C10.4031 12.4841 10.791 12.6447 11.077 12.9307C11.363 13.2167 11.5236 13.6046 11.5236 14.009C11.5236 14.4135 11.363 14.8014 11.077 15.0873C10.791 15.3733 10.4031 15.534 9.99866 15.534C9.29772 15.534 8.60364 15.396 7.95604 15.1278C7.30845 14.8596 6.72003 14.4665 6.22436 13.9709C5.72732 13.4758 5.33327 12.8871 5.06498 12.2388C4.7967 11.5906 4.65948 10.8956 4.66126 10.1941C4.66121 9.49312 4.79922 8.79904 5.06742 8.15144C5.33561 7.50384 5.72875 6.91541 6.22436 6.41975C6.72003 5.92414 7.30845 5.53101 7.95604 5.26282C8.60364 4.99462 9.29772 4.85661 9.99866 4.85666C10.6998 4.85522 11.3943 4.99259 12.0421 5.26087C12.6899 5.52915 13.2781 5.92301 13.773 6.41975C14.2686 6.91541 14.6617 7.50384 14.9299 8.15144C15.1981 8.79904 15.3361 9.49312 15.3361 10.1941V14.6546C15.5473 14.4019 15.7401 14.1343 15.913 13.854C16.5924 12.7542 16.9515 11.4867 16.95 10.1941C16.9514 9.28158 16.7725 8.37781 16.4236 7.53469C16.0746 6.69156 15.5625 5.9257 14.9167 5.28111C14.273 4.63401 13.5073 4.12109 12.664 3.77207C11.8207 3.42304 10.9165 3.24484 10.0037 3.24781C9.09127 3.24638 8.1875 3.42528 7.34437 3.77422C6.50125 4.12316 5.73539 4.63526 5.0908 5.28111C4.44427 5.9252 3.93172 6.69096 3.58273 7.5342C3.23375 8.37744 3.05523 9.28146 3.0575 10.1941C3.05453 11.1068 3.23273 12.011 3.58176 12.8543C3.93078 13.6977 4.4437 14.4633 5.0908 15.107C5.73539 15.7529 6.50125 16.265 7.34437 16.6139C8.1875 16.9628 9.09127 17.1417 10.0037 17.1403C10.4082 17.1403 10.7961 17.301 11.0821 17.587C11.368 17.8729 11.5287 18.2608 11.5287 18.6653C11.5287 19.0697 11.368 19.4576 11.0821 19.7436C10.7961 20.0296 10.4082 20.1902 10.0037 20.1902C8.69119 20.1923 7.39115 19.9351 6.17821 19.4335C4.96527 18.932 3.8633 18.1958 2.93551 17.2674C2.00438 16.3399 1.26571 15.2375 0.76193 14.0236C0.25815 12.8098 -0.000818637 11.5083 -7.47483e-05 10.1941C-0.00248888 8.88076 0.255231 7.57999 0.758207 6.36683C1.26118 5.15367 1.99946 4.05214 2.93042 3.12582C3.85674 2.19486 4.95827 1.45659 6.17143 0.953609C7.3846 0.450633 8.68537 0.192915 9.99866 0.195329C11.313 0.193584 12.6147 0.451578 13.829 0.954487C15.0433 1.4574 16.1463 2.19531 17.0745 3.12582C18.003 4.0536 18.7391 5.15558 19.2407 6.36852C19.7423 7.58146 19.9994 8.8815 19.9974 10.1941C19.9987 12.0499 19.4801 13.8689 18.5004 15.445C17.5715 16.9459 16.2612 18.1737 14.7032 19.0033C13.745 19.687 12.2887 18.9093 12.2887 17.5546V10.1839C12.2845 9.58164 12.0445 9.005 11.6202 8.57759C11.4072 8.36497 11.1543 8.19648 10.876 8.08177C10.5978 7.96707 10.2996 7.9084 9.99866 7.90914C9.69852 7.90792 9.40116 7.96664 9.12402 8.08186C8.84688 8.19708 8.59554 8.36648 8.38474 8.58013C8.17063 8.79072 8.00076 9.04197 7.8851 9.31912C7.76944 9.59627 7.71031 9.89374 7.7112 10.1941C7.7108 10.4952 7.76986 10.7935 7.88501 11.0717C8.00015 11.35 8.16912 11.6028 8.38219 11.8156C8.81118 12.2438 9.39256 12.4842 9.99866 12.4841Z" fill="#0055FF"/>
</g>
<defs>
<clipPath id="clip0_556_1061">
<rect width="20" height="20" fill="white" transform="translate(0 0.195312)"/>
</clipPath>
</defs>
</svg>
