<svg width="60" height="60" viewBox="0 0 60 60" fill="none" xmlns="http://www.w3.org/2000/svg">
<path fill-rule="evenodd" clip-rule="evenodd" d="M30 0C35.9334 0 41.7336 1.75948 46.6671 5.05592C51.6006 8.35236 55.4457 13.0377 57.7164 18.5195C59.987 24.0013 60.5811 30.0333 59.4236 35.8527C58.266 41.6721 55.4088 47.0176 51.2132 51.2132C47.0176 55.4088 41.6721 58.266 35.8527 59.4235C30.0333 60.5811 24.0013 59.987 18.5195 57.7164C13.0377 55.4458 8.35234 51.6006 5.0559 46.6671C1.75946 41.7336 0 35.9334 0 30C0 22.0435 3.16068 14.4129 8.78677 8.7868C14.4129 3.16071 22.0435 0 30 0ZM30 10C33.9556 10 37.8224 11.173 41.1114 13.3706C44.4004 15.5682 46.9638 18.6918 48.4776 22.3463C49.9913 26.0009 50.3874 30.0222 49.6157 33.9018C48.844 37.7814 46.9392 41.3451 44.1422 44.1421C41.3451 46.9392 37.7814 48.844 33.9018 49.6157C30.0222 50.3874 26.0009 49.9913 22.3463 48.4776C18.6918 46.9638 15.5682 44.4004 13.3706 41.1114C11.173 37.8224 10 33.9556 10 30C10 24.6957 12.1071 19.6086 15.8578 15.8579C19.6086 12.1071 24.6957 10 30 10ZM30 20C31.9778 20 33.9112 20.5865 35.5557 21.6853C37.2002 22.7841 38.4819 24.3459 39.2388 26.1732C39.9957 28.0004 40.1937 30.0111 39.8078 31.9509C39.422 33.8907 38.4696 35.6725 37.0711 37.0711C35.6725 38.4696 33.8907 39.422 31.9509 39.8078C30.0111 40.1937 28.0004 39.9957 26.1731 39.2388C24.3459 38.4819 22.7841 37.2002 21.6853 35.5557C20.5865 33.9112 20 31.9778 20 30C20 27.3478 21.0536 24.8043 22.9289 22.9289C24.8043 21.0536 27.3478 20 30 20Z" fill="#0055FF"/>
</svg>
