<svg width="60" height="60" viewBox="0 0 60 60" fill="none" xmlns="http://www.w3.org/2000/svg">
<path fill-rule="evenodd" clip-rule="evenodd" d="M42.9677 7.35732C46.6427 11.0428 49.0874 15.7739 49.9665 20.9024C50.8456 26.0308 50.1161 31.3055 47.8782 36.0033L60 48.1183C57.1406 53.0267 53.067 57.1181 48.1699 60L36.0481 47.86C31.8845 49.8519 27.2532 50.6615 22.6603 50.2003C18.0674 49.739 13.6898 48.0248 10.006 45.2448C6.32212 42.4649 3.47385 38.7262 1.77251 34.4376C0.0711737 30.149 -0.417727 25.4755 0.359197 20.9279C1.13612 16.3803 3.14898 12.1338 6.17777 8.65236C9.20657 5.17095 13.1347 2.58873 17.5328 1.18796C21.9309 -0.212809 26.6296 -0.378207 31.1154 0.709841C35.6012 1.79789 39.7014 4.09751 42.9677 7.35732ZM35.0477 15.2646C37.0042 17.2199 38.3366 19.7111 38.8764 22.4232C39.4163 25.1354 39.1392 27.9466 38.0804 30.5014C37.0216 33.0562 35.2286 35.2398 32.928 36.7761C30.6275 38.3125 27.9228 39.1325 25.156 39.1325C22.3891 39.1325 19.6844 38.3125 17.3838 36.7761C15.0833 35.2398 13.2903 33.0562 12.2315 30.5014C11.1727 27.9466 10.8957 25.1354 11.4355 22.4232C11.9753 19.7111 13.3077 17.2199 15.2642 15.2646C17.8877 12.6427 21.4459 11.1697 25.156 11.1697C28.8661 11.1697 32.4242 12.6427 35.0477 15.2646Z" fill="#0055FF"/>
</svg>
