<svg width="60" height="60" viewBox="0 0 60 60" fill="none" xmlns="http://www.w3.org/2000/svg">
<path fill-rule="evenodd" clip-rule="evenodd" d="M0 45V15C0.0153631 11.0265 1.60063 7.2201 4.41035 4.41037C7.22007 1.60065 11.0265 0.0153631 15 0H45C48.9735 0.0153631 52.7799 1.60065 55.5896 4.41037C58.3994 7.2201 59.9846 11.0265 60 15V45C59.9846 48.9735 58.3994 52.7799 55.5896 55.5896C52.7799 58.3993 48.9735 59.9846 45 60H15C11.0265 59.9846 7.22007 58.3993 4.41035 55.5896C1.60063 52.7799 0.0153631 48.9735 0 45ZM30 37.5C31.3261 37.5 32.5978 38.0268 33.5355 38.9645C34.4732 39.9021 35 41.1739 35 42.5C35 43.8261 34.4732 45.0979 33.5355 46.0355C32.5978 46.9732 31.3261 47.5 30 47.5C26.5388 47.5 23.1554 46.4736 20.2775 44.5507C17.3996 42.6278 15.1566 39.8947 13.8321 36.697C12.5076 33.4992 12.161 29.9806 12.8363 26.5859C13.5115 23.1913 15.1782 20.073 17.6256 17.6256C20.073 15.1782 23.1912 13.5115 26.5859 12.8363C29.9806 12.161 33.4993 12.5076 36.697 13.8321C39.8947 15.1566 42.6278 17.3997 44.5507 20.2775C46.4737 23.1554 47.5 26.5388 47.5 30V42.5C47.5 43.8261 46.9732 45.0979 46.0355 46.0355C45.0978 46.9732 43.8261 47.5 42.5 47.5C41.1739 47.5 39.9022 46.9732 38.9645 46.0355C38.0268 45.0979 37.5 43.8261 37.5 42.5V30C37.5 28.0109 36.7098 26.1032 35.3033 24.6967C33.8968 23.2902 31.9891 22.5 30 22.5C28.0109 22.5 26.1032 23.2902 24.6967 24.6967C23.2902 26.1032 22.5 28.0109 22.5 30C22.5 31.9891 23.2902 33.8968 24.6967 35.3033C26.1032 36.7098 28.0109 37.5 30 37.5Z" fill="#0055FF"/>
</svg>
