<svg width="60" height="60" viewBox="0 0 60 60" fill="none" xmlns="http://www.w3.org/2000/svg">
<path fill-rule="evenodd" clip-rule="evenodd" d="M0 45V15C0 11.0218 1.58032 7.20644 4.39336 4.3934C7.20641 1.58035 11.0218 0 15 0H45C48.9735 0.0153631 52.7799 1.60065 55.5896 4.41037C58.3993 7.22009 59.9846 11.0265 60 15V45C59.9846 48.9735 58.3993 52.7799 55.5896 55.5896C52.7799 58.3993 48.9735 59.9846 45 60H15C11.0218 60 7.20641 58.4196 4.39336 55.6066C1.58032 52.7936 0 48.9782 0 45ZM45.2167 33.2083C46.2601 33.2556 47.2451 33.7035 47.9668 34.4586C48.6884 35.2137 49.0911 36.218 49.0911 37.2625C49.0911 38.307 48.6884 39.3113 47.9668 40.0664C47.2451 40.8215 46.2601 41.2693 45.2167 41.3167C45.6906 42.2557 45.7805 43.3424 45.4675 44.3466C45.1545 45.3508 44.4631 46.1939 43.5395 46.6974C42.6159 47.2008 41.5327 47.3252 40.5191 47.0442C39.5054 46.7632 38.6408 46.0988 38.1083 45.1917L35.8917 41.3167H23.8917L21.65 45.1917C21.1116 46.0815 20.2503 46.7289 19.246 46.9989C18.2416 47.2688 17.1718 47.1403 16.2599 46.6403C15.348 46.1402 14.6645 45.3073 14.3521 44.3153C14.0397 43.3233 14.1225 42.249 14.5833 41.3167C13.5348 41.2502 12.5529 40.7797 11.8442 40.0041C11.1355 39.2285 10.7552 38.2083 10.7833 37.1581C10.8113 36.1078 11.2456 35.1094 11.9947 34.3728C12.7438 33.6361 13.7494 33.2187 14.8 33.2083H19.2333L25.2333 22.75L22.9916 18.85C22.4882 17.9373 22.3577 16.8651 22.6274 15.8583C22.8971 14.8515 23.5462 13.9882 24.4384 13.4494C25.3307 12.9106 26.3969 12.7381 27.4135 12.9681C28.4302 13.1982 29.3183 13.8129 29.8917 14.6833C30.4686 13.8185 31.3567 13.2092 32.3712 12.9822C33.3858 12.7551 34.4489 12.9278 35.3394 13.4643C36.23 14.0007 36.8795 14.8598 37.1531 15.8628C37.4266 16.8658 37.3032 17.9357 36.8083 18.85L34.5667 22.75L40.5583 33.2083H45.2167ZM28.55 33.2083H31.2666L29.9 30.85L28.55 33.2083Z" fill="#0055FF"/>
</svg>
