<svg width="60" height="60" viewBox="0 0 60 60" fill="none" xmlns="http://www.w3.org/2000/svg">
<path fill-rule="evenodd" clip-rule="evenodd" d="M0 45V15C0.0153631 11.0265 1.60063 7.2201 4.41035 4.41037C7.22007 1.60065 11.0265 0.0153631 15 0H45C48.9735 0.0153631 52.7799 1.60065 55.5896 4.41037C58.3994 7.2201 59.9846 11.0265 60 15V45C59.9846 48.9735 58.3994 52.7799 55.5896 55.5896C52.7799 58.3993 48.9735 59.9846 45 60H15C11.0265 59.9846 7.22007 58.3993 4.41035 55.5896C1.60063 52.7799 0.0153631 48.9735 0 45ZM19.4917 45.375C19.1989 45.9632 18.7932 46.488 18.2976 46.9194C17.8021 47.3508 17.2264 47.6804 16.6035 47.8893C15.9806 48.0983 15.3226 48.1825 14.6671 48.1371C14.0116 48.0917 13.3716 47.9177 12.7834 47.625C12.1951 47.3323 11.6703 46.9265 11.2389 46.431C10.8075 45.9354 10.4779 45.3597 10.269 44.7368C10.0601 44.1139 9.97585 43.4559 10.0212 42.8005C10.0666 42.145 10.2406 41.5049 10.5333 40.9167L19.275 23.3333C19.8356 22.2102 20.7982 21.339 21.9715 20.8928C23.1449 20.4466 24.4431 20.4581 25.6083 20.925L34.775 24.0917L40.6833 14.2667C40.9821 13.6377 41.409 13.0781 41.9366 12.6237C42.4642 12.1692 43.0809 11.83 43.7472 11.6277C44.4135 11.4255 45.1147 11.3646 45.8059 11.449C46.4971 11.5335 47.163 11.7613 47.761 12.118C48.359 12.4747 48.876 12.9524 49.2787 13.5205C49.6814 14.0886 49.961 14.7345 50.0996 15.4169C50.2382 16.0993 50.2327 16.8031 50.0836 17.4833C49.9344 18.1634 49.6448 18.8049 49.2333 19.3667L41.4083 32.5C40.8512 33.5423 39.9429 34.3535 38.8446 34.7898C37.7462 35.2261 36.5288 35.2593 35.4083 34.8833L26.2417 31.7417L19.4917 45.375Z" fill="#0055FF"/>
</svg>
