<svg width="45" height="45" viewBox="0 0 45 45" fill="none" xmlns="http://www.w3.org/2000/svg">
<path fill-rule="evenodd" clip-rule="evenodd" d="M15 11.7625C14.0054 11.7625 13.0516 12.1576 12.3484 12.8609C11.6451 13.5641 11.25 14.5179 11.25 15.5125C11.25 16.5071 11.6451 17.4609 12.3484 18.1642C13.0516 18.8674 14.0054 19.2625 15 19.2625C15.9946 19.2625 16.9484 18.8674 17.6516 18.1642C18.3549 17.4609 18.75 16.5071 18.75 15.5125C18.75 14.5179 18.3549 13.5641 17.6516 12.8609C16.9484 12.1576 15.9946 11.7625 15 11.7625ZM22.5 0C28.4674 0 34.1903 2.37053 38.4099 6.5901C42.6295 10.8097 45 16.5326 45 22.5C45 28.4674 42.6295 34.1903 38.4099 38.4099C34.1903 42.6295 28.4674 45 22.5 45C16.5326 45 10.8096 42.6295 6.59008 38.4099C2.37051 34.1903 0 28.4674 0 22.5C0 16.5326 2.37051 10.8097 6.59008 6.5901C10.8096 2.37053 16.5326 0 22.5 0ZM31.5562 27.725C31.6808 27.5122 31.8461 27.3261 32.0427 27.1773C32.2393 27.0285 32.4633 26.92 32.7019 26.8578C32.9405 26.7957 33.189 26.7813 33.4332 26.8153C33.6774 26.8494 33.9125 26.9312 34.125 27.0563C34.5496 27.3077 34.858 27.7165 34.9832 28.1939C35.1084 28.6713 35.0403 29.1787 34.7937 29.6062C33.5544 31.7706 31.7564 33.5623 29.5875 34.7937C27.4338 36.0423 24.9894 36.7019 22.5 36.7062C20.0108 36.7001 17.5669 36.0406 15.4125 34.7937C13.2517 33.5517 11.4561 31.7625 10.2063 29.6062C9.96129 29.1765 9.8961 28.6673 10.0249 28.1897C10.1536 27.712 10.4659 27.3046 10.8937 27.0563C11.3213 26.8097 11.8288 26.7416 12.3061 26.8668C12.7835 26.992 13.1923 27.3004 13.4438 27.725C14.3566 29.3223 15.6792 30.647 17.275 31.5625C18.8643 32.4767 20.6666 32.9553 22.5 32.95C24.3337 32.9577 26.1367 32.4789 27.725 31.5625C29.32 30.6488 30.6425 29.3263 31.5562 27.7312V27.725ZM32.8062 13.6438C33.3035 13.6438 33.7804 13.8413 34.1321 14.1929C34.4837 14.5446 34.6812 15.0215 34.6812 15.5188C34.6812 16.016 34.4837 16.4929 34.1321 16.8446C33.7804 17.1962 33.3035 17.3938 32.8062 17.3938H27.1812C26.684 17.3938 26.207 17.1962 25.8554 16.8446C25.5038 16.4929 25.3062 16.016 25.3062 15.5188C25.3062 15.0215 25.5038 14.5446 25.8554 14.1929C26.207 13.8413 26.684 13.6438 27.1812 13.6438H32.8062Z" fill="#0055FF"/>
</svg>
