<svg width="30" height="28" viewBox="0 0 30 28" fill="none" xmlns="http://www.w3.org/2000/svg">
<path fill-rule="evenodd" clip-rule="evenodd" d="M2.56453 2.91834C5.70127 -0.242466 10.6673 -0.504636 14.1066 2.13289C14.3632 2.32973 14.6767 2.43632 14.9992 2.43632C15.3217 2.43632 15.6353 2.32973 15.8919 2.13289C19.3317 -0.504636 24.2987 -0.240883 27.4355 2.91834C30.8548 6.36506 30.8548 12.0041 27.4355 15.4508L16.0384 26.9367C15.902 27.0743 15.74 27.1835 15.5617 27.2579C15.3834 27.3324 15.1922 27.3707 14.9992 27.3707C14.8062 27.3707 14.6151 27.3324 14.4368 27.2579C14.2584 27.1835 14.0964 27.0743 13.96 26.9367L2.56453 15.4508C-0.854844 12.0041 -0.854844 6.36506 2.56453 2.91834Z" fill="#0055FF"/>
</svg>
