<svg width="20" height="21" viewBox="0 0 20 21" fill="none" xmlns="http://www.w3.org/2000/svg">
<path fill-rule="evenodd" clip-rule="evenodd" d="M6.92911 17.8144C7.08853 17.8862 7.23106 17.9905 7.34747 18.1206C7.46388 18.2507 7.5516 18.4038 7.60494 18.5698C7.65828 18.7358 7.67606 18.9111 7.65713 19.0843C7.63821 19.2576 7.58301 19.425 7.49508 19.5757C7.40715 19.7264 7.28845 19.857 7.14667 19.9592C7.0049 20.0613 6.84321 20.1326 6.67202 20.1685C6.50084 20.2045 6.32399 20.2042 6.15291 20.1678C5.98184 20.1314 5.82033 20.0596 5.67885 19.9571C3.95228 18.964 2.51852 17.5355 1.52167 15.8153C0.524817 14.0951 0 12.1438 0 10.1574C0 8.17104 0.524817 6.21968 1.52167 4.49947C2.51852 2.77926 3.95228 1.35082 5.67885 0.357745C5.96593 0.195338 6.30583 0.152658 6.62438 0.239008C6.94293 0.325357 7.21428 0.533733 7.37921 0.818668C7.53865 1.10305 7.57993 1.43834 7.49424 1.75269C7.40855 2.06704 7.20269 2.33544 6.92077 2.50038C4.88685 3.67609 3.40304 5.60652 2.79386 7.86942C2.18468 10.1323 2.49973 12.5435 3.6701 14.5756C4.44704 15.9227 5.56874 17.0403 6.92077 17.8144H6.92911ZM9.33796 13.716C9.62294 13.8824 9.83022 14.1545 9.91456 14.4727C9.99889 14.7909 9.9534 15.1294 9.78804 15.4143C9.62246 15.6963 9.35234 15.9022 9.03585 15.9877C8.71936 16.0731 8.38182 16.0313 8.09602 15.8711C7.08287 15.2986 6.24041 14.4683 5.65466 13.4652C5.06891 12.4621 4.76086 11.3221 4.76199 10.1616C4.76159 9.00173 5.06999 7.86256 5.6557 6.86025C6.24142 5.85794 7.08349 5.02836 8.09602 4.45616C8.38032 4.29495 8.71673 4.25118 9.03305 4.33424C9.34937 4.4173 9.6204 4.62058 9.78804 4.90047C9.9534 5.18538 9.99889 5.52392 9.91456 5.84213C9.83022 6.16035 9.62294 6.43237 9.33796 6.5988C8.39639 7.15124 7.71022 8.05005 7.42726 9.10164C7.14431 10.1532 7.2872 11.2735 7.82514 12.2211C8.1865 12.845 8.70885 13.3612 9.33796 13.716V13.716ZM11.3926 8.50474C11.0628 8.50474 10.7405 8.60216 10.4664 8.78467C10.1923 8.96718 9.97859 9.22658 9.85242 9.53008C9.72624 9.83358 9.69324 10.1675 9.75756 10.4897C9.82188 10.8119 9.98066 11.1079 10.2138 11.3402C10.4469 11.5725 10.744 11.7307 11.0673 11.7948C11.3907 11.8588 11.7259 11.8259 12.0305 11.7002C12.3351 11.5745 12.5954 11.3616 12.7786 11.0885C12.9618 10.8153 13.0596 10.4942 13.0596 10.1657C13.0596 9.72519 12.8839 9.30272 12.5713 8.99123C12.2587 8.67974 11.8347 8.50474 11.3926 8.50474ZM16.3936 20.1315H14.7266C14.2845 20.1315 13.8604 19.9565 13.5478 19.645C13.2352 19.3335 13.0596 18.911 13.0596 18.4705V15.1486C13.0596 14.7081 13.2352 14.2856 13.5478 13.9741C13.8604 13.6626 14.2845 13.4876 14.7266 13.4876C15.1687 13.4876 15.5927 13.3126 15.9053 13.0011C16.218 12.6896 16.3936 12.2672 16.3936 11.8267V8.50474C16.3936 8.06423 16.218 7.64176 15.9053 7.33027C15.5927 7.01878 15.1687 6.84379 14.7266 6.84379C14.2845 6.84379 13.8604 6.66879 13.5478 6.3573C13.2352 6.04581 13.0596 5.62334 13.0596 5.18283V1.86091C13.0596 1.4204 13.2352 0.997925 13.5478 0.686435C13.8604 0.374944 14.2845 0.199952 14.7266 0.199952H16.3936C18.9941 0.199952 19.9985 5.18283 19.9985 10.1657C19.9985 15.1486 18.9941 20.1315 16.3936 20.1315Z" fill="#0055FF"/>
</svg>
