<svg width="276" height="60" viewBox="0 0 276 60" fill="none" xmlns="http://www.w3.org/2000/svg">
<path d="M0 30C0 18.7846 0 13.1769 2.41154 9C3.99137 6.26365 6.26366 3.99137 9 2.41154C13.1769 0 18.7846 0 30 0H246C257.215 0 262.823 0 267 2.41154C269.736 3.99137 272.009 6.26365 273.589 9C276 13.1769 276 18.7846 276 30V30C276 41.2154 276 46.8231 273.589 51C272.009 53.7363 269.736 56.0086 267 57.5885C262.823 60 257.215 60 246 60H30C18.7846 60 13.1769 60 9 57.5885C6.26366 56.0086 3.99137 53.7363 2.41154 51C0 46.8231 0 41.2154 0 30V30Z" fill="white"/>
<path d="M80.8975 41.0225H88.7862V18.5165H80.8975V41.0225ZM185.152 17.7396C182.299 17.7124 179.477 18.3304 176.897 19.5472L176.609 18.5143H170.31V41.0225H178.199V25.3891C183.251 22.1973 188.556 23.0079 188.556 28.5641V41.0204H196.444V25.3891C201.497 22.1973 206.801 23.0079 206.801 28.5641V41.0141H214.692V27.0253C214.692 22.9444 211.811 17.7418 203.399 17.7418C199.668 17.7418 196.626 18.6477 193.475 20.4002C191.686 18.8276 189 17.7418 185.154 17.7418L185.152 17.7396ZM63.6407 41.7951C52.9432 41.7782 49.019 36.984 49.019 29.8087C49.019 22.6333 52.9432 17.8455 63.6407 17.8201C74.3381 17.8455 78.2687 22.6333 78.2687 29.8087C78.2687 36.984 74.3381 41.7782 63.6407 41.7951ZM70.38 29.8087C70.38 25.5415 67.8168 23.8821 63.6407 23.8567C59.4646 23.8736 56.9098 25.55 56.9098 29.8087C56.9098 34.0673 59.4561 35.7479 63.6407 35.7606C67.8168 35.7416 70.38 34.0673 70.38 29.8023V29.8087ZM37.2844 32.0523C37.2844 25.0674 43.4226 24.3605 47.3045 25.8125L49.019 18.3598C44.5741 17.3756 39.2825 17.7248 36.6664 21.9962L35.8684 18.5165H29.4V41.0225H37.2908L37.2844 32.0523ZM106.259 17.7418C103.406 17.7152 100.585 18.3331 98.0041 19.5494L97.7226 18.5165H91.4172V41.0225H99.3058V25.3891C104.358 22.1973 109.662 23.0079 109.662 28.5641V41.0204H117.553V25.3891C122.604 22.1973 127.914 23.0079 127.914 28.5641V41.0141H135.799V27.0253C135.799 22.9444 132.918 17.7418 124.506 17.7418C120.775 17.7418 117.733 18.6477 114.582 20.4002C112.795 18.8276 110.107 17.7418 106.261 17.7418H106.259ZM89.4826 13.0979C89.4826 10.1579 87.7194 9.0128 84.8387 9.0001C81.9579 8.9874 80.199 10.1494 80.199 13.0979C80.199 16.0463 81.9622 17.1914 84.8366 17.202C87.7109 17.2126 89.4804 16.0379 89.4804 13.0979H89.4826ZM153.051 41.7845C155.831 41.776 158.576 41.1613 161.094 39.9833L161.382 41.0098H167.688V29.7917C167.688 22.6164 163.757 17.8053 153.06 17.8053C142.362 17.8053 138.438 22.6164 138.438 29.7917C138.438 42.9148 153.043 41.7803 153.06 41.7803L153.051 41.7845ZM159.784 29.796V34.1287C158.277 35.2505 155.974 35.7543 153.045 35.7543C148.869 35.7543 146.314 34.061 146.314 29.796C146.314 25.531 148.869 23.844 153.045 23.844C157.221 23.844 159.784 25.5373 159.784 29.796ZM231.938 41.7845C234.718 41.776 237.463 41.1613 239.981 39.9833L240.269 41.0098H246.566V29.7917C246.566 22.6164 242.642 17.8053 231.944 17.8053C221.247 17.8053 217.316 22.6164 217.316 29.7917C217.316 42.9148 231.921 41.7803 231.944 41.7803L231.938 41.7845ZM238.669 29.796V34.1287C237.164 35.2505 234.859 35.7543 231.938 35.7543C227.762 35.7543 225.201 34.061 225.201 29.796C225.201 25.531 227.762 23.844 231.938 23.844C236.114 23.844 238.669 25.5373 238.669 29.796Z" fill="#0047BB"/>
</svg>
