<svg width="15" height="16" viewBox="0 0 15 16" fill="none" xmlns="http://www.w3.org/2000/svg">
<path fill-rule="evenodd" clip-rule="evenodd" d="M2.5 0.234375V0.859375C2.5 1.02514 2.56585 1.1841 2.68306 1.30131C2.80027 1.41852 2.95924 1.48438 3.125 1.48438C3.29076 1.48438 3.44973 1.41852 3.56694 1.30131C3.68415 1.1841 3.75 1.02514 3.75 0.859375V0.234375H11.25V0.859375C11.25 1.02514 11.3159 1.1841 11.4331 1.30131C11.5503 1.41852 11.7092 1.48438 11.875 1.48438C12.0408 1.48438 12.1997 1.41852 12.3169 1.30131C12.4341 1.1841 12.5 1.02514 12.5 0.859375V0.234375C13.163 0.234375 13.7989 0.497765 14.2678 0.966606C14.7366 1.43545 15 2.07133 15 2.73438V12.7344C15 13.3974 14.7366 14.0333 14.2678 14.5021C13.7989 14.971 13.163 15.2344 12.5 15.2344H2.5C1.83696 15.2344 1.20107 14.971 0.732231 14.5021C0.26339 14.0333 0 13.3974 0 12.7344V2.73438C0 2.07133 0.26339 1.43545 0.732231 0.966606C1.20107 0.497765 1.83696 0.234375 2.5 0.234375ZM3.75 5.23438C3.99723 5.23438 4.2389 5.16107 4.44447 5.02371C4.65003 4.88636 4.81024 4.69114 4.90485 4.46273C4.99946 4.23432 5.02421 3.98299 4.97598 3.74051C4.92775 3.49804 4.8087 3.27531 4.63388 3.10049C4.45907 2.92567 4.23634 2.80663 3.99386 2.75839C3.75138 2.71016 3.50005 2.73492 3.27164 2.82953C3.04324 2.92414 2.84801 3.08435 2.71066 3.28991C2.57331 3.49547 2.5 3.73715 2.5 3.98438C2.5 4.3159 2.6317 4.63384 2.86612 4.86826C3.10054 5.10268 3.41848 5.23438 3.75 5.23438ZM7.5 5.23438C7.74723 5.23438 7.9889 5.16107 8.19447 5.02371C8.40003 4.88636 8.56024 4.69114 8.65485 4.46273C8.74946 4.23432 8.77421 3.98299 8.72598 3.74051C8.67775 3.49804 8.5587 3.27531 8.38388 3.10049C8.20907 2.92567 7.98634 2.80663 7.74386 2.75839C7.50138 2.71016 7.25005 2.73492 7.02164 2.82953C6.79324 2.92414 6.59801 3.08435 6.46066 3.28991C6.32331 3.49547 6.25 3.73715 6.25 3.98438C6.25 4.3159 6.38169 4.63384 6.61612 4.86826C6.85054 5.10268 7.16848 5.23438 7.5 5.23438ZM11.25 5.23438C11.0028 5.23438 10.7611 5.16107 10.5555 5.02371C10.35 4.88636 10.1898 4.69114 10.0952 4.46273C10.0005 4.23432 9.97579 3.98299 10.024 3.74051C10.0723 3.49804 10.1913 3.27531 10.3661 3.10049C10.5409 2.92567 10.7637 2.80663 11.0061 2.75839C11.2486 2.71016 11.4999 2.73492 11.7284 2.82953C11.9568 2.92414 12.152 3.08435 12.2893 3.28991C12.4267 3.49547 12.5 3.73715 12.5 3.98438C12.5 4.3159 12.3683 4.63384 12.1339 4.86826C11.8995 5.10268 11.5815 5.23438 11.25 5.23438ZM3.75 6.48438C3.99723 6.48438 4.2389 6.55768 4.44447 6.69503C4.65003 6.83239 4.81024 7.02761 4.90485 7.25602C4.99946 7.48443 5.02421 7.73576 4.97598 7.97824C4.92775 8.22071 4.8087 8.44344 4.63388 8.61826C4.45907 8.79307 4.23634 8.91212 3.99386 8.96035C3.75138 9.00859 3.50005 8.98383 3.27164 8.88922C3.04324 8.79461 2.84801 8.6344 2.71066 8.42884C2.57331 8.22328 2.5 7.9816 2.5 7.73438C2.5 7.40285 2.6317 7.08491 2.86612 6.85049C3.10054 6.61607 3.41848 6.48438 3.75 6.48438ZM7.5 6.48438C7.74723 6.48438 7.9889 6.55768 8.19447 6.69503C8.40003 6.83239 8.56024 7.02761 8.65485 7.25602C8.74946 7.48443 8.77421 7.73576 8.72598 7.97824C8.67775 8.22071 8.5587 8.44344 8.38388 8.61826C8.20907 8.79307 7.98634 8.91212 7.74386 8.96035C7.50138 9.00859 7.25005 8.98383 7.02164 8.88922C6.79324 8.79461 6.59801 8.6344 6.46066 8.42884C6.32331 8.22328 6.25 7.9816 6.25 7.73438C6.25 7.40285 6.38169 7.08491 6.61612 6.85049C6.85054 6.61607 7.16848 6.48438 7.5 6.48438ZM11.25 6.48438C11.0028 6.48438 10.7611 6.55768 10.5555 6.69503C10.35 6.83239 10.1898 7.02761 10.0952 7.25602C10.0005 7.48443 9.97579 7.73576 10.024 7.97824C10.0723 8.22071 10.1913 8.44344 10.3661 8.61826C10.5409 8.79307 10.7637 8.91212 11.0061 8.96035C11.2486 9.00859 11.4999 8.98383 11.7284 8.88922C11.9568 8.79461 12.152 8.6344 12.2893 8.42884C12.4267 8.22328 12.5 7.9816 12.5 7.73438C12.5 7.40285 12.3683 7.08491 12.1339 6.85049C11.8995 6.61607 11.5815 6.48438 11.25 6.48438ZM3.75 12.7344C3.99723 12.7344 4.2389 12.6611 4.44447 12.5237C4.65003 12.3864 4.81024 12.1911 4.90485 11.9627C4.99946 11.7343 5.02421 11.483 4.97598 11.2405C4.92775 10.998 4.8087 10.7753 4.63388 10.6005C4.45907 10.4257 4.23634 10.3066 3.99386 10.2584C3.75138 10.2102 3.50005 10.2349 3.27164 10.3295C3.04324 10.4241 2.84801 10.5843 2.71066 10.7899C2.57331 10.9955 2.5 11.2371 2.5 11.4844C2.5 11.8159 2.6317 12.1338 2.86612 12.3683C3.10054 12.6027 3.41848 12.7344 3.75 12.7344ZM7.5 12.7344C7.74723 12.7344 7.9889 12.6611 8.19447 12.5237C8.40003 12.3864 8.56024 12.1911 8.65485 11.9627C8.74946 11.7343 8.77421 11.483 8.72598 11.2405C8.67775 10.998 8.5587 10.7753 8.38388 10.6005C8.20907 10.4257 7.98634 10.3066 7.74386 10.2584C7.50138 10.2102 7.25005 10.2349 7.02164 10.3295C6.79324 10.4241 6.59801 10.5843 6.46066 10.7899C6.32331 10.9955 6.25 11.2371 6.25 11.4844C6.25 11.8159 6.38169 12.1338 6.61612 12.3683C6.85054 12.6027 7.16848 12.7344 7.5 12.7344Z" fill="#BFD1EE"/>
</svg>
