<svg width="16" height="16" viewBox="0 0 16 16" fill="none" xmlns="http://www.w3.org/2000/svg">
<path fill-rule="evenodd" clip-rule="evenodd" d="M7.8875 0.234375L10.8458 4.45729L15.775 5.96354L12.6792 10.0781L12.7687 15.2344L7.8875 13.5573L3.0125 15.2344L3.10208 10.0781L0 5.96354L4.93125 4.45729L7.8875 0.234375ZM9.22083 6.32396C9.33445 6.19841 9.4724 6.09725 9.62631 6.02663C9.78021 5.95601 9.94685 5.91739 10.1161 5.91313C10.2854 5.90886 10.4538 5.93903 10.6111 6.00181C10.7683 6.06458 10.9112 6.15866 11.031 6.27832C11.1508 6.39799 11.245 6.54075 11.308 6.69794C11.371 6.85513 11.4013 7.02348 11.3973 7.19276C11.3932 7.36204 11.3548 7.52873 11.2843 7.68272C11.2139 7.8367 11.1129 7.97477 10.9875 8.08854L8.26249 10.8115C8.02812 11.0455 7.71041 11.177 7.37916 11.177C7.04791 11.177 6.73021 11.0455 6.49583 10.8115L4.78958 9.10938C4.55475 8.8751 4.42261 8.55714 4.42222 8.22543C4.42183 7.89373 4.55322 7.57545 4.7875 7.34062C5.02177 7.1058 5.33973 6.97365 5.67144 6.97326C6.00314 6.97287 6.32142 7.10427 6.55624 7.33854L7.37708 8.15937L9.22083 6.32396Z" fill="#BFD1EE"/>
</svg>
