<svg width="12" height="16" viewBox="0 0 12 16" fill="none" xmlns="http://www.w3.org/2000/svg">
<path fill-rule="evenodd" clip-rule="evenodd" d="M5.90491 12.9166H3.47371L3.6517 13.9415C3.69081 14.2258 3.82284 14.4892 4.02723 14.6906C4.55533 15.0955 5.18709 15.2344 5.90687 15.2344C6.62665 15.2344 7.26623 15.0955 7.7865 14.6906C7.9975 14.4921 8.13533 14.2281 8.17769 13.9415L8.35568 12.9166H5.90491ZM3.15489 11.9387C2.00873 10.1783 0 9.22775 0 6.0357C0.028172 4.48746 0.662988 3.01214 1.76786 1.92719C2.87273 0.842245 4.35935 0.234375 5.90785 0.234375C7.45635 0.234375 8.94296 0.842245 10.0478 1.92719C11.1527 3.01214 11.7875 4.48746 11.8157 6.0357C11.8157 9.22775 9.80305 10.1822 8.65493 11.9387H3.15489ZM4.29715 7.85861C4.18842 7.97558 4.05696 8.06913 3.91082 8.13353C3.76468 8.19793 3.60693 8.23183 3.44724 8.23314C3.28754 8.23445 3.12926 8.20315 2.98208 8.14117C2.8349 8.07918 2.70192 7.9878 2.59128 7.87263C2.48064 7.75746 2.39468 7.62093 2.33865 7.47138C2.28262 7.32183 2.25769 7.16242 2.26541 7.0029C2.27313 6.84339 2.31333 6.68713 2.38354 6.54369C2.45375 6.40025 2.5525 6.27265 2.67374 6.1687L4.25608 4.62157C4.45503 4.43147 4.71447 4.31733 4.98904 4.29909C5.26362 4.28086 5.53587 4.35969 5.75822 4.52182L6.60318 5.08317L7.51854 4.20105C7.62963 4.0942 7.76068 4.01027 7.90421 3.95407C8.04773 3.89786 8.20092 3.87047 8.35502 3.87347C8.50913 3.87647 8.66114 3.90979 8.80237 3.97153C8.9436 4.03328 9.07129 4.12223 9.17814 4.23332C9.28499 4.34441 9.36891 4.47546 9.42512 4.61898C9.48133 4.76251 9.50872 4.9157 9.50572 5.0698C9.50272 5.22391 9.4694 5.37592 9.40765 5.51715C9.34591 5.65838 9.25696 5.78607 9.14587 5.89292L7.55375 7.42831C7.36113 7.61133 7.1121 7.72357 6.8474 7.74666C6.5827 7.76976 6.318 7.70234 6.09659 7.55545L5.22034 6.96867L4.29715 7.85861Z" fill="#BFD1EE"/>
</svg>
