<svg width="16" height="16" viewBox="0 0 16 16" fill="none" xmlns="http://www.w3.org/2000/svg">
<path fill-rule="evenodd" clip-rule="evenodd" d="M8.31567 0.234375C10.3048 0.234375 12.2124 1.02455 13.619 2.43107C15.0255 3.8376 15.8157 5.74525 15.8157 7.73437C15.8157 9.7235 15.0255 11.6312 13.619 13.0377C12.2124 14.4442 10.3048 15.2344 8.31567 15.2344C6.34276 15.2344 4.49484 14.5323 3.21151 13.226C1.12817 11.124 6.14692 10.8531 5.66984 9.09896C5.34484 7.88854 0.815674 10.2865 0.815674 7.73437C0.815674 5.74525 1.60584 3.8376 3.01237 2.43107C4.41889 1.02455 6.32655 0.234375 8.31567 0.234375ZM7.29275 10.8115C8.20317 10.5698 9.08233 10.9115 9.25942 11.5781C9.4365 12.2448 8.84276 12.9844 7.93651 13.226C7.03026 13.4677 6.14692 13.126 5.96358 12.4656C5.78025 11.8052 6.38025 11.0594 7.29275 10.8115ZM4.46359 3.76562C4.63609 3.7648 4.80495 3.81522 4.94875 3.9105C5.09255 4.00578 5.2048 4.14162 5.27129 4.30079C5.33778 4.45996 5.3555 4.63529 5.3222 4.80455C5.28891 4.9738 5.2061 5.12936 5.08427 5.25148C4.96244 5.3736 4.80707 5.45679 4.6379 5.4905C4.46872 5.5242 4.29336 5.5069 4.13403 5.4408C3.9747 5.37469 3.83858 5.26275 3.74296 5.11918C3.64734 4.97561 3.59651 4.80687 3.59692 4.63437C3.59747 4.4045 3.68889 4.18416 3.85124 4.02142C4.0136 3.85867 4.23372 3.76672 4.46359 3.76562ZM7.42817 2.24687C7.60041 2.24729 7.76864 2.29876 7.91162 2.39479C8.0546 2.49083 8.1659 2.6271 8.23143 2.78638C8.29696 2.94566 8.31378 3.1208 8.27978 3.28964C8.24577 3.45848 8.16246 3.61345 8.04038 3.73495C7.9183 3.85644 7.76294 3.93901 7.59393 3.97221C7.42493 4.00541 7.24988 3.98774 7.09091 3.92145C6.93195 3.85516 6.79621 3.74322 6.70086 3.59978C6.60552 3.45635 6.55484 3.28786 6.55525 3.11562C6.55525 3.00119 6.57786 2.88788 6.62178 2.7822C6.6657 2.67653 6.73007 2.58057 6.81118 2.49985C6.8923 2.41912 6.98855 2.35522 7.09444 2.3118C7.20032 2.26839 7.31374 2.24633 7.42817 2.24687ZM10.4823 2.79063C10.6553 2.78982 10.8245 2.84052 10.9686 2.93627C11.1126 3.03201 11.2248 3.16847 11.291 3.32826C11.3572 3.48804 11.3742 3.6639 11.3401 3.83343C11.3059 4.00297 11.2221 4.15849 11.0992 4.28019C10.9763 4.40188 10.82 4.48424 10.6501 4.51675C10.4803 4.54927 10.3046 4.53047 10.1455 4.46276C9.98634 4.39505 9.85096 4.28149 9.75661 4.13656C9.66226 3.99163 9.61319 3.82188 9.61567 3.64896C9.61622 3.41872 9.70793 3.19807 9.87074 3.03527C10.0335 2.87246 10.2542 2.78076 10.4844 2.78021L10.4823 2.79063ZM12.9678 4.85729C13.1398 4.8577 13.3079 4.90908 13.4508 5.00492C13.5937 5.10077 13.705 5.23679 13.7706 5.39583C13.8363 5.55487 13.8533 5.72979 13.8197 5.89853C13.786 6.06726 13.7031 6.22223 13.5814 6.34389C13.4598 6.46556 13.3048 6.54845 13.1361 6.58212C12.9673 6.61579 12.7924 6.59872 12.6334 6.53307C12.4743 6.46741 12.3383 6.35612 12.2425 6.21323C12.1466 6.07034 12.0953 5.90227 12.0948 5.73021C12.0954 5.49887 12.1875 5.27715 12.3511 5.11357C12.5147 4.94999 12.7364 4.85784 12.9678 4.85729ZM13.3469 7.84479C13.5196 7.84397 13.6887 7.89441 13.8328 7.98973C13.9768 8.08505 14.0894 8.22097 14.1562 8.38028C14.2229 8.53959 14.2409 8.71513 14.2079 8.88467C14.1748 9.05422 14.0922 9.21015 13.9705 9.33273C13.8488 9.45531 13.6935 9.53902 13.5242 9.57328C13.3549 9.60753 13.1792 9.59079 13.0194 9.52516C12.8597 9.45954 12.7229 9.34798 12.6266 9.20462C12.5302 9.06125 12.4786 8.89253 12.4782 8.71979C12.4776 8.60526 12.4997 8.49174 12.5431 8.38574C12.5864 8.27974 12.6503 8.18334 12.731 8.10206C12.8117 8.02078 12.9077 7.95622 13.0133 7.91208C13.119 7.86793 13.2324 7.84506 13.3469 7.84479Z" fill="#BFD1EE"/>
</svg>
