<svg width="15" height="16" viewBox="0 0 15 16" fill="none" xmlns="http://www.w3.org/2000/svg">
<path fill-rule="evenodd" clip-rule="evenodd" d="M13.4875 5.13233L14.65 5.11359C14.8063 5.53724 14.9234 5.9743 15 6.4193L13.9833 6.98573C14.0375 7.47988 14.0375 7.97846 13.9833 8.47261L15 9.03904C14.9232 9.48398 14.806 9.92102 14.65 10.3448L13.4875 10.326C13.2903 10.7824 13.0407 11.2142 12.7437 11.613L13.3396 12.6105C13.0512 12.9581 12.7311 13.2781 12.3833 13.5663L11.3854 12.9707C10.9865 13.2676 10.5545 13.5171 10.0979 13.7142L10.1146 14.8783C9.69102 15.0326 9.25458 15.149 8.81041 15.2261L8.24375 14.2098C7.7487 14.2639 7.24921 14.2639 6.75416 14.2098L6.1875 15.2344C5.74333 15.1573 5.30689 15.0409 4.88333 14.8866L4.89999 13.7225C4.44415 13.524 4.01224 13.2746 3.61249 12.9791L2.61458 13.5684C2.26832 13.2785 1.94833 12.9587 1.65833 12.6125L2.25417 11.615C1.95868 11.2153 1.70919 10.7836 1.51042 10.3281L0.347913 10.3468C0.191605 9.92335 0.0751329 9.48622 0 9.04112L1.01458 8.47469C0.962499 7.98043 0.962499 7.48207 1.01458 6.98781L0 6.42138C0.0748709 5.97623 0.19135 5.53908 0.347913 5.11567L1.51042 5.13442C1.70919 4.67887 1.95868 4.24716 2.25417 3.84745L1.65833 2.84995C1.94779 2.50335 2.26783 2.18344 2.61458 1.8941L3.61249 2.48968C4.01224 2.19412 4.44415 1.94473 4.89999 1.74625L4.88333 0.58215C5.30689 0.427833 5.74333 0.311448 6.1875 0.234375L6.75416 1.25062C7.24921 1.19648 7.7487 1.19648 8.24375 1.25062L8.81041 0.234375C9.25458 0.311448 9.69102 0.427833 10.1146 0.58215L10.0979 1.74625C10.5545 1.94334 10.9865 2.19282 11.3854 2.48968L12.3833 1.8941C12.7316 2.1818 13.0518 2.50185 13.3396 2.84995L12.7437 3.84745C13.0407 4.24617 13.2903 4.67806 13.4875 5.13442V5.13233ZM7.5 5.23229C7.99445 5.23229 8.4778 5.37886 8.88892 5.65344C9.30004 5.92803 9.62048 6.31832 9.8097 6.77494C9.99892 7.23157 10.0484 7.73403 9.95196 8.21878C9.8555 8.70353 9.6174 9.14879 9.26777 9.49828C8.91814 9.84776 8.47267 10.0858 7.98772 10.1822C7.50277 10.2786 7.0001 10.2291 6.54329 10.04C6.08647 9.85085 5.69602 9.53055 5.42132 9.1196C5.14662 8.70865 5 8.2255 5 7.73125C5 7.06849 5.26339 6.43286 5.73223 5.96422C6.20107 5.49557 6.83696 5.23229 7.5 5.23229Z" fill="#BFD1EE"/>
</svg>
