<svg width="15" height="16" viewBox="0 0 15 16" fill="none" xmlns="http://www.w3.org/2000/svg">
<path fill-rule="evenodd" clip-rule="evenodd" d="M7.38585 1.53383C6.83158 2.08756 6.43288 2.77739 6.22986 3.53398C6.02684 4.29057 6.02664 5.08726 6.22928 5.84395L0.652701 11.429C0.445674 11.6361 0.281474 11.8819 0.169484 12.1524C0.0574942 12.423 -9.66333e-05 12.7129 1.21712e-07 13.0057C9.68767e-05 13.2984 0.0578877 13.5883 0.170056 13.8588C0.282225 14.1292 0.44658 14.3749 0.653744 14.5819C0.860908 14.7889 1.10682 14.953 1.37744 15.065C1.64806 15.1769 1.93809 15.2345 2.23097 15.2344C2.52385 15.2343 2.81383 15.1765 3.08438 15.0644C3.35493 14.9522 3.60073 14.788 3.80776 14.5809L9.38432 9.00207C10.1409 9.20409 10.9373 9.20358 11.6937 9.0006C12.45 8.79762 13.1396 8.39931 13.6932 7.84566C14.2468 7.29201 14.645 6.60251 14.8478 5.84638C15.0505 5.09024 15.0507 4.2941 14.8484 3.53786L12.1664 6.22101L10.916 5.89187L9.66566 5.55439L9.33848 4.30864L9.00713 3.05873L11.6933 0.388076C10.9374 0.184048 10.1411 0.18313 9.38472 0.385412C8.62837 0.587693 7.93884 0.986003 7.38585 1.54008V1.53383Z" fill="#BFD1EE"/>
</svg>
