<svg width="219" height="100" viewBox="0 0 219 100" fill="none" xmlns="http://www.w3.org/2000/svg">
<g style="mix-blend-mode:multiply">
<path d="M8.27261 62.4667C8.09799 62.2378 7.92607 62.0203 7.75686 61.8141C7.58764 61.608 7.42384 61.4247 7.26545 61.2642C6.85934 60.7695 6.50128 60.3252 6.19129 59.9314C5.8813 59.5376 5.56659 59.0732 5.24716 58.5381C5.22427 58.1373 5.18522 57.4654 5.13 56.5226C5.09781 55.5753 5.06971 54.5438 5.0457 53.4281C5.01628 52.2897 4.99567 51.1376 4.98386 49.9719C4.99508 48.8019 5.04417 47.7915 5.13112 46.9407C5.21668 46.1855 5.31445 45.3803 5.42443 44.5251C5.55743 43.6656 5.72968 42.8701 5.94118 42.1386C6.17029 41.3799 6.44678 40.7194 6.77063 40.1572C7.09447 39.595 7.49884 39.22 7.98372 39.0323C8.16514 39.1885 8.34995 39.3082 8.53817 39.3915C8.72097 39.452 8.88685 39.4919 9.03581 39.5112C9.55704 39.984 10.0478 40.3792 10.5082 40.6967C10.9631 40.9914 11.4871 41.2729 12.0802 41.5413C12.1043 42.2518 12.0783 43.0552 12.0022 43.9516C11.9437 44.8208 11.8648 45.7058 11.7657 46.6066C11.6895 47.503 11.608 48.3766 11.521 49.2274C11.4287 50.0553 11.3695 50.7697 11.3436 51.3706C11.3137 51.853 11.2999 52.4038 11.3024 53.023C11.3063 53.5466 11.3231 54.1751 11.3526 54.9083C11.4052 55.6372 11.474 56.4345 11.559 57.3002C11.8597 57.1476 12.1733 56.8972 12.4998 56.549C12.8493 56.1964 13.1616 55.839 13.4366 55.4767C13.7699 55.0557 14.0863 54.6141 14.3857 54.1519C14.7908 53.5265 15.1262 52.9621 15.3918 52.4586C15.6574 51.9552 15.8857 51.4469 16.0768 50.9338C16.2856 50.3935 16.4862 49.819 16.6787 49.2103C16.8888 48.5744 17.1321 47.8249 17.4087 46.9619C17.6662 46.2216 17.9245 45.4335 18.1834 44.5977C18.4654 43.7574 18.7555 42.9514 19.0536 42.1795C19.3518 41.4077 19.652 40.695 19.9542 40.0416C20.251 39.3654 20.5458 38.8325 20.8384 38.4431C21.1512 38.6457 21.5012 38.8531 21.8884 39.0654C22.2987 39.2733 22.713 39.397 23.1315 39.4364C23.3522 39.6566 23.5559 39.8561 23.7427 40.0351C23.9472 40.1868 24.1401 40.3407 24.3215 40.4969C24.5652 40.7126 24.7805 40.91 24.9673 41.0889C25.1772 41.2635 25.3694 41.4652 25.544 41.6941C25.5643 41.8809 25.575 42.1292 25.5763 42.4388C25.6006 42.744 25.6214 43.0856 25.6389 43.4637C25.651 43.8189 25.6542 44.1877 25.6487 44.5701C25.6662 44.9482 25.681 45.3148 25.693 45.67C25.7062 46.7401 25.7175 47.5483 25.7268 48.0948C25.7361 48.6412 25.7529 49.067 25.7771 49.3723C25.8014 49.6775 25.8264 49.9349 25.852 50.1446C25.9007 50.3498 25.9683 50.6349 26.0549 50.9997C26.1198 51.2734 26.2078 51.5427 26.3187 51.8075C26.4243 52.0496 26.5325 52.3031 26.6435 52.568C26.7721 52.8057 26.944 53.0232 27.1592 53.2206L28.5167 51.6392C28.896 51.2094 29.2199 50.6472 29.4883 49.9525C29.7742 49.2307 30.0183 48.4334 30.2203 47.5607C30.44 46.6608 30.6347 45.7061 30.8043 44.6965C30.9685 43.6642 31.1273 42.609 31.2807 41.5311C31.3838 40.7487 31.4897 39.9777 31.5983 39.2182C31.7245 38.4314 31.8615 37.6902 32.0094 36.9947C32.1518 36.2764 32.299 35.6286 32.4508 35.0515C32.6203 34.4472 32.7999 33.9363 32.9896 33.5188C33.7032 33.788 34.3247 34.0749 34.8541 34.3792C35.4066 34.6792 35.9008 35.0379 36.3367 35.4555C36.7902 35.8458 37.1821 36.3312 37.5124 36.9119C37.8602 37.4653 38.1776 38.1438 38.4644 38.9472C38.1851 40.0015 37.9457 41.072 37.7463 42.1587C37.5469 43.2454 37.3501 44.3436 37.1561 45.4531C36.9173 46.881 36.6555 48.3133 36.3706 49.75C36.1033 51.1595 35.7535 52.5251 35.3211 53.8469C34.8886 55.1687 34.3425 56.4168 33.6826 57.5912C33.0403 58.7385 32.2247 59.7638 31.2358 60.6672C30.8972 60.6602 30.6128 60.6786 30.3826 60.7224C30.1293 60.7707 29.9187 60.8466 29.7508 60.95C29.6058 61.0492 29.4778 61.1689 29.3667 61.3092C28.32 61.0557 27.4087 60.5619 26.633 59.8278C25.8518 59.0708 25.0605 58.2204 24.2591 57.2767C24.1522 57.1302 24.0365 56.9973 23.9119 56.878C23.805 56.7316 23.6865 56.5873 23.5566 56.4452L22.7179 55.4966L22.2184 54.9124L21.8404 55.4492L21.2693 56.2373L20.9523 56.7267C20.3954 57.524 19.8243 58.312 19.239 59.0909C18.6483 59.8469 18.0123 60.564 17.3309 61.242C16.6441 61.8971 15.878 62.4721 15.0328 62.9667C14.2106 63.457 13.2842 63.8122 12.2536 64.0324C12.0477 63.9763 11.8561 63.9293 11.6787 63.8916C11.5244 63.8495 11.37 63.8074 11.2156 63.7653C10.6266 63.6153 10.1323 63.4592 9.73289 63.2969C9.33344 63.1346 8.84668 62.8579 8.27261 62.4667ZM56.0144 35.7833C56.0753 35.9386 56.1051 36.064 56.1037 36.1596C56.1199 36.228 56.1246 36.2986 56.1178 36.3714C56.1341 36.4398 56.153 36.5196 56.1746 36.6109C56.1909 36.6793 56.2409 36.7889 56.3249 36.9398C56.0253 37.8072 55.5883 38.4506 55.014 38.8698C54.4573 39.2619 53.8268 39.5965 53.1225 39.8736C52.4128 40.128 51.6827 40.3981 50.9324 40.684C50.2051 40.9656 49.5156 41.4067 48.864 42.0076C48.5377 41.9505 48.2614 42.0032 48.0352 42.1654C47.832 42.3233 47.4947 42.4233 47.0234 42.4654C46.9178 42.6285 46.7694 42.764 46.5784 42.8719C46.3821 42.957 46.1884 43.0535 45.9974 43.1613C46.1382 43.349 46.2241 43.5591 46.2552 43.7915C46.3038 43.9968 46.3789 44.1612 46.4805 44.2849C47.3025 44.1998 48.1862 44.0196 49.1316 43.7442C50.1 43.4644 51.0534 43.2232 51.992 43.0206C52.0421 43.1303 52.0495 43.2123 52.0143 43.2667C51.9736 43.2982 51.9756 43.3575 52.0203 43.4443C52.2085 43.5276 52.4048 43.6451 52.6093 43.7969C52.8083 43.9258 53.0073 44.0548 53.2064 44.1837C53.4054 44.3126 53.599 44.4188 53.7872 44.5021C53.9931 44.5582 54.2084 44.553 54.4332 44.4863C54.5686 44.6512 54.6748 44.8455 54.7519 45.0692C54.8467 45.2656 54.875 45.4867 54.837 45.7322C54.5282 46.0533 54.222 46.3857 53.9185 46.7295C53.6097 47.0505 53.2724 47.3531 52.9066 47.6373C52.5639 47.9171 52.1785 48.1692 51.7505 48.3938C51.3401 48.5911 50.8559 48.731 50.298 48.8134C50.1828 48.8354 50.0907 48.8529 50.0217 48.8661C49.9756 48.8748 49.8984 48.8538 49.7901 48.8029C49.633 48.952 49.3763 49.0366 49.0201 49.0568C48.687 49.0726 48.4419 49.155 48.2847 49.3041C48.0044 49.2384 47.6828 49.252 47.3198 49.3449C46.9744 49.4107 46.6528 49.4243 46.3549 49.3857C46.1001 49.9348 45.888 50.5114 45.7185 51.1158C45.549 51.7201 45.4222 52.352 45.338 53.0116C46.1479 52.9765 46.8033 52.8994 47.3045 52.7801C47.8286 52.6564 48.3155 52.5279 48.7651 52.3946C49.2094 52.2385 49.6678 52.0916 50.1405 51.9539C50.6078 51.7934 51.2125 51.6544 51.9547 51.5369C52.3556 51.1983 52.8588 50.9356 53.4642 50.7488C54.0872 50.5348 54.6419 50.2861 55.1282 50.0028C55.3286 50.0362 55.5195 50.1309 55.7009 50.287C55.8769 50.4204 56.0414 50.5559 56.1944 50.6936C56.365 50.8041 56.5329 50.9032 56.6981 50.9909C56.8633 51.0786 57.0468 51.0914 57.2486 51.0291C57.3623 51.1028 57.4469 51.2058 57.5024 51.3383C57.5755 51.4435 57.6371 51.551 57.6871 51.6606C57.7372 51.7702 57.7961 51.8663 57.8638 51.9487C57.9491 52.004 58.0581 52.0071 58.1908 51.9579C58.024 52.7763 57.759 53.4345 57.3959 53.9327C57.0504 54.4037 56.6142 54.7967 56.0873 55.1115C55.5604 55.4264 54.9536 55.7088 54.2669 55.9588C53.6033 56.2044 52.8644 56.4881 52.0504 56.81C51.854 56.8951 51.6787 56.9165 51.5243 56.8744C51.3753 56.8551 51.2088 56.863 51.0246 56.8981C50.5221 57.113 49.9133 57.3362 49.1981 57.5678C48.483 57.7993 47.7429 57.976 46.9777 58.0979C46.2125 58.2198 45.4629 58.2554 44.7289 58.2045C44.0004 58.1764 43.366 57.9874 42.8257 57.6374C42.6037 57.5129 42.4338 57.3545 42.316 57.1625C42.2159 56.9432 42.0256 56.8006 41.7453 56.7349C41.652 56.4428 41.5275 56.1209 41.3719 55.7692C41.2163 55.4174 41.0579 55.0543 40.8969 54.6798C40.7305 54.2825 40.5782 53.8944 40.4402 53.5154C40.3252 53.1321 40.2644 52.7743 40.2578 52.4419C40.2457 52.0866 40.3108 51.7525 40.4531 51.4393C40.6184 51.1218 40.6287 50.81 40.4839 50.5039C40.5936 50.4592 40.6491 50.389 40.6505 50.2934C40.6465 50.175 40.7278 50.1119 40.8943 50.104C40.9351 49.6672 40.9928 49.251 41.0674 48.8554C41.142 48.4598 41.2193 48.0757 41.2994 47.7029C41.4024 47.3258 41.4939 46.9508 41.574 46.578C41.6716 46.1781 41.7496 45.7461 41.808 45.2821C41.4153 45.0471 41.0979 44.7738 40.8556 44.4625C40.6309 44.1239 40.4434 43.7902 40.2932 43.4612C40.1376 43.1095 39.9935 42.7556 39.8609 42.3995C39.7229 42.0206 39.5503 41.6483 39.3432 41.2825C39.4923 40.8966 39.7037 40.5703 39.9773 40.3037C40.2686 40.0098 40.5937 39.7572 40.9526 39.5459C41.3116 39.3345 41.7105 39.1393 42.1493 38.9604C42.5881 38.7815 43.0473 38.5868 43.5268 38.3763C44.3774 37.9044 45.1406 37.5207 45.8165 37.2251C46.5154 36.9252 47.1994 36.6638 47.8684 36.441C48.5551 36.1911 49.2675 35.9481 50.0057 35.7122C50.7438 35.4763 51.5747 35.175 52.4985 34.8084C52.7544 34.9741 52.9744 35.0395 53.1586 35.0044C53.202 34.7816 53.2921 34.7049 53.4288 34.7742C53.5832 34.8163 53.6245 34.7369 53.5528 34.536C53.875 34.8799 54.2413 35.1557 54.6515 35.3636C55.0794 35.5443 55.5337 35.6842 56.0144 35.7833ZM69.744 37.2083C69.7916 36.6987 69.9474 36.24 70.2117 35.8322C70.4989 35.4199 70.8227 35.0603 71.183 34.7533C71.5609 34.4192 71.9612 34.1284 72.3838 33.8811C72.8064 33.6338 73.2114 33.4136 73.5988 33.2206C74.4278 32.6576 75.3197 32.1063 76.2747 31.5669C77.2472 31.0003 78.2421 30.4771 79.2592 29.9974C80.2995 29.5132 81.3871 29.1273 82.522 28.8396C83.6515 28.5292 84.8927 28.4358 86.2456 28.5595C86.3688 28.7744 86.5238 28.9713 86.7106 29.1502C86.8974 29.3291 87.0842 29.5081 87.2711 29.687C87.4809 29.8615 87.6677 30.0405 87.8315 30.2238C87.9899 30.3843 88.105 30.565 88.1767 30.7658C88.4556 30.9272 88.6939 31.1202 88.8915 31.3447C89.0838 31.5465 89.1798 31.8499 89.1797 32.2552C88.9927 32.4815 88.8031 32.6963 88.6107 32.8998C88.436 33.0761 88.2355 33.2454 88.0093 33.4077C87.1087 33.3647 86.2291 33.4607 85.3704 33.6957C84.5117 33.9308 83.7425 34.1369 83.0626 34.3141C82.8067 34.1483 82.5291 34.0939 82.2298 34.1509C81.9535 34.2035 81.665 34.3062 81.3643 34.4588C81.0866 34.607 80.7975 34.7574 80.4968 34.91C80.2191 35.0583 79.9367 35.1359 79.6496 35.1429C79.4627 35.3692 79.2046 35.5494 78.8755 35.6836C78.564 35.7906 78.2179 35.9042 77.8373 36.0244C77.8414 36.1428 77.8833 36.2182 77.9632 36.2506C78.0377 36.2603 78.0654 36.3265 78.0464 36.4493C78.2224 36.5826 78.4222 36.6638 78.6456 36.6927C78.8921 36.7173 79.1385 36.7418 79.385 36.7664C79.6545 36.7866 79.8949 36.8361 80.1061 36.9151C80.3119 36.9712 80.4764 37.1067 80.5996 37.3216C80.9449 37.2558 81.2632 37.2787 81.5543 37.39C81.8454 37.5014 82.0986 37.6558 82.3139 37.8532C82.5291 38.0505 82.7038 38.2794 82.8377 38.5399C82.9893 38.7733 83.0895 38.9925 83.1382 39.1978C83.2505 39.3671 83.35 39.4315 83.4367 39.3912C83.5234 39.3508 83.6378 39.3767 83.78 39.4688C83.9194 39.7521 84.1651 40.0271 84.5171 40.2937C84.8637 40.5376 85.1609 40.8266 85.4086 41.1608C85.5899 41.7221 85.7461 42.2286 85.8773 42.6803C86.0031 43.1092 86.028 43.5693 85.9521 44.0605C85.8068 44.97 85.5019 45.8146 85.0371 46.5944C84.5954 47.3697 84.0453 48.0942 83.3869 48.7678C82.7461 49.4142 82.0316 50.0032 81.2432 50.5347C80.4549 51.0662 79.6761 51.5363 78.9067 51.9451C78.8092 51.9398 78.7171 51.9573 78.6304 51.9977C78.5437 52.038 78.5072 51.9854 78.5208 51.8398C78.3745 52.0345 78.1916 52.1766 77.9722 52.2661C77.7758 52.3511 77.5483 52.4064 77.2896 52.4318C77.0363 52.4801 76.7688 52.5191 76.4872 52.5489C76.2285 52.5743 75.9894 52.6318 75.77 52.7213C75.571 52.5923 75.3835 52.4612 75.2075 52.3279C75.0599 52.213 74.9245 52.0481 74.8014 51.8332C74.6862 51.8551 74.6152 51.8091 74.5881 51.695C74.5841 51.5766 74.536 51.5262 74.4439 51.5437C74.528 51.2894 74.5558 51.153 74.5273 51.1346C74.5165 51.089 74.4739 51.0613 74.3994 51.0517C74.3479 51.0376 74.2965 51.0236 74.245 51.0096C74.1882 50.9727 74.1631 50.9179 74.1699 50.8451C74.2187 50.6451 74.2046 50.4333 74.1275 50.2097C74.0449 49.9632 73.9624 49.7167 73.8799 49.4703C73.7974 49.2238 73.7521 48.9821 73.744 48.7453C73.759 48.5041 73.8884 48.2888 74.1322 48.0993C74.9367 48.0415 75.668 47.8783 76.3263 47.61C77.0021 47.3144 77.6184 46.9706 78.1751 46.5785C78.7319 46.1865 79.2487 45.7782 79.7255 45.3537C80.2253 44.9248 80.7218 44.5323 81.2149 44.1762C81.2352 43.9578 81.2868 43.7692 81.3694 43.6104C81.4751 43.4473 81.5835 43.2956 81.6946 43.1552C81.8057 43.0149 81.9026 42.8654 81.9852 42.7066C82.0679 42.5478 82.1079 42.3615 82.1053 42.1474C82.0904 41.9834 82.0227 41.901 81.9022 41.9001C81.7993 41.872 81.7316 41.7896 81.6992 41.6528L81.2949 41.6225C80.798 41.455 80.2543 41.344 79.6638 41.2896C79.068 41.2124 78.55 41.1085 78.11 40.9778C77.8891 41.1628 77.6555 41.2431 77.4091 41.2185C77.1856 41.1896 76.8931 41.1738 76.5315 41.1712C75.7379 41.2746 74.9592 41.3395 74.1954 41.3658C73.4546 41.3878 72.7152 41.3141 71.9772 41.1448C71.9041 41.0395 71.8222 40.9479 71.7315 40.8698C71.6408 40.7918 71.5087 40.7931 71.3354 40.8738C71.154 40.7176 70.9752 40.5729 70.7992 40.4396C70.6178 40.2835 70.4452 40.1137 70.2814 39.9304C70.2625 39.648 70.243 39.4134 70.2227 39.2265C70.1971 39.0169 70.082 38.8362 69.8776 38.6845C69.8993 38.3705 69.9116 38.1179 69.9144 37.9267C69.9172 37.7355 69.8604 37.496 69.744 37.2083ZM103.63 46.9143C103.267 47.0073 102.804 47.0836 102.241 47.1432C101.7 47.1985 101.224 47.3726 100.812 47.6655C99.5813 47.8523 98.3028 47.9409 96.977 47.9312C95.6512 47.9216 94.4155 47.8352 93.2699 47.672C92.9801 47.465 92.6958 47.2808 92.4169 47.1194C92.1326 46.9352 91.7839 46.8348 91.3708 46.8181C90.7155 46.4901 90.1421 46.0511 89.6507 45.5011C89.1539 44.9284 88.718 44.3083 88.3431 43.6408C87.9682 42.9733 87.6597 42.2813 87.4175 41.5647C87.1699 40.8253 86.9765 40.1113 86.8372 39.4228C86.9391 38.3308 87.2144 37.3607 87.6629 36.5126C88.1291 35.6372 88.6094 34.7711 89.104 33.9142C89.3709 33.7204 89.5571 33.5419 89.6628 33.3787C89.7861 33.1884 89.9148 33.0209 90.0489 32.8762C90.2007 32.7043 90.3436 32.5459 90.4777 32.4012C90.6294 32.2293 90.7527 32.039 90.8476 31.8302C91.304 31.6241 91.6806 31.3855 91.9773 31.1145C92.2916 30.8163 92.5943 30.5203 92.8856 30.2265C93.1714 29.9098 93.4742 29.6138 93.7939 29.3384C94.1136 29.063 94.5017 28.8223 94.9581 28.6161C95.0936 28.3758 95.2745 28.1745 95.5007 28.0123C95.7215 27.8272 95.945 27.6535 96.1712 27.4913C96.415 27.3018 96.6358 27.1168 96.8336 26.9361C97.0544 26.751 97.2068 26.5313 97.2909 26.2769C97.4493 26.4375 97.6267 26.4752 97.8231 26.3901C98.0141 26.2822 98.1935 26.1765 98.3615 26.073C98.4712 26.0283 98.5687 26.0336 98.654 26.0888C98.7623 26.1397 98.8591 26.1928 98.9444 26.248C99.0297 26.3033 99.0981 26.3379 99.1496 26.352C99.2186 26.3388 99.2627 26.2708 99.2817 26.148C99.3968 26.1261 99.4448 26.1765 99.4258 26.2993C99.4068 26.4221 99.3912 26.5085 99.379 26.5585C99.5578 26.5006 99.7183 26.5177 99.8605 26.6098C100.02 26.6748 100.241 26.6923 100.523 26.6625C100.642 26.759 100.686 26.8458 100.657 26.923C100.621 26.9774 100.62 27.073 100.652 27.2098C101.392 27.2835 101.908 27.5308 102.2 27.9518C102.487 28.35 102.607 28.8039 102.559 29.3135C102.512 29.8231 102.329 30.3226 102.012 30.8121C101.695 31.3015 101.311 31.6606 100.86 31.8896C99.8254 32.3965 98.8562 32.9267 97.9528 33.4801C97.0669 34.0064 96.3943 34.6708 95.935 35.4733C95.4203 35.7382 94.9767 36.0491 94.6041 36.4061C94.2492 36.7359 93.9166 37.1091 93.6064 37.5257C93.3137 37.9151 93.038 38.3252 92.7792 38.7558C92.538 39.1593 92.2738 39.5672 91.9866 39.9794C92.0853 40.2943 92.0873 40.5561 91.9924 40.7648C91.9151 40.9464 91.8406 41.1393 91.7687 41.3437C91.8959 41.677 92.0495 41.9695 92.2296 42.2213C92.4042 42.4502 92.5903 42.6769 92.788 42.9015C94.4157 43.0681 96.095 43.0462 97.8258 42.8357C99.5796 42.6209 101.323 42.3604 103.055 42.0543C103.27 42.2517 103.506 42.4332 103.762 42.599C104.035 42.7376 104.291 42.9034 104.529 43.0963C104.762 43.2665 104.969 43.4774 105.149 43.7292C105.323 43.9581 105.422 44.273 105.445 44.6738C105.204 45.0773 104.923 45.4645 104.601 45.8355C104.275 46.1837 103.951 46.5433 103.63 46.9143ZM125 39.7693C124.954 40.1833 124.842 40.6218 124.663 41.085C124.501 41.5209 124.274 41.9335 123.982 42.323C123.707 42.6852 123.375 43.0106 122.986 43.2992C122.597 43.5877 122.164 43.7895 121.686 43.9044C121.37 43.893 121.144 43.8526 121.007 43.7833C120.899 43.7324 120.779 43.6838 120.648 43.6373C120.568 43.6048 120.491 43.5838 120.416 43.5741C120.36 43.5373 120.305 43.5118 120.254 43.4978L119.799 43.4057L119.832 42.9347C119.834 42.7435 119.79 42.6089 119.7 42.5308C119.604 42.4299 119.43 42.308 119.18 42.165C119.094 42.1098 119.009 42.0545 118.924 41.9993C118.839 41.944 118.765 41.8865 118.702 41.8269L117.961 41.2888L118.837 40.8717C119.375 40.6025 119.706 40.3249 119.83 40.039C119.978 39.7486 119.959 39.3114 119.772 38.7272C119.29 38.7237 118.896 38.7869 118.59 38.9167C118.307 39.0421 118.015 39.1811 117.714 39.3337C117.327 39.5267 116.925 39.7104 116.509 39.885C116.111 40.0323 115.659 40.1542 115.152 40.2507C114.968 40.2858 114.795 40.3187 114.634 40.3494C114.468 40.3573 114.289 40.3674 114.1 40.3796L113.738 40.377C113.633 40.1349 113.554 40.0069 113.503 39.9928C113.446 39.956 113.389 39.9191 113.332 39.8823C113.19 39.7902 113.028 39.6661 112.847 39.51C112.683 39.3267 112.6 39.0802 112.599 38.7706C112.435 38.5873 112.318 38.3952 112.246 38.1943C112.173 38.4943 112.137 38.7991 112.138 39.1087L112.081 39.4771L111.752 39.6113C111.711 39.6428 111.69 39.7064 111.689 39.802C111.682 39.8748 111.684 39.934 111.695 39.9796L111.66 40.594C111.625 40.6484 111.59 40.7028 111.554 40.7572C111.514 40.7888 111.476 40.8317 111.441 40.8861C111.443 41.1001 111.434 41.3163 111.414 41.5347C111.394 41.7531 111.371 41.9601 111.345 42.1557C111.3 42.4741 111.267 42.7903 111.245 43.1043C111.241 43.3911 111.283 43.6692 111.371 43.9384L111.322 44.341C111.239 44.4998 111.139 44.6379 111.023 44.7554C110.901 44.8502 110.779 44.9449 110.657 45.0396C110.622 45.094 110.564 45.1528 110.482 45.2159C110.419 45.2519 110.367 45.2856 110.326 45.3172L110.312 45.7132L109.913 45.8606C109.671 45.9544 109.495 46.0237 109.385 46.0684C109.299 46.1088 109.186 46.1421 109.048 46.1684L108.695 46.2C108.393 46.043 108.159 45.9206 107.994 45.8329C107.823 45.7224 107.632 45.6277 107.421 45.5487C107.149 45.3145 106.985 45.1312 106.93 44.9988C106.874 44.8663 106.821 44.7453 106.771 44.6357C106.693 44.5076 106.643 44.398 106.621 44.3068C106.576 44.2199 106.526 44.1581 106.469 44.1212L105.923 43.7963L106.229 43.416L106.126 42.828C106.311 41.5772 106.529 40.3677 106.781 39.1994C107.057 38.0267 107.338 36.829 107.625 35.6064C107.723 35.2064 107.809 34.8086 107.884 34.4131C107.981 34.0131 108.079 33.6132 108.177 33.2132C108.137 33.1492 108.107 33.0716 108.085 32.9803C108.064 32.8891 108.062 32.7821 108.081 32.6593C108.243 32.2234 108.369 31.8419 108.46 31.5147C108.545 31.1647 108.631 30.8148 108.716 30.4648C108.808 30.0421 108.903 29.6307 109.001 29.2307C109.121 28.8264 109.285 28.4019 109.493 27.9572L109.989 27.6125C110.052 27.5765 110.127 27.5384 110.214 27.498C110.295 27.4349 110.394 27.3924 110.509 27.3704L111.043 27.3402C111.617 26.9209 112.084 26.403 112.443 25.7864C112.797 25.147 113.138 24.4028 113.466 23.5538L113.697 23.0091L114.211 23.1972C114.343 23.2437 114.52 23.2814 114.743 23.3104C114.961 23.3165 115.194 23.3319 115.44 23.3564C115.876 23.3687 116.292 23.3968 116.687 23.4407C117.083 23.4845 117.423 23.5985 117.707 23.7827C117.932 24.1213 118.077 24.3796 118.143 24.5577C118.21 24.7357 118.288 24.9116 118.377 25.0852C118.538 25.4598 118.687 25.8365 118.825 26.2154C118.986 26.5899 119.135 27.0144 119.272 27.489C119.479 27.8547 119.663 28.2248 119.824 28.5994C120.003 28.9467 120.173 29.3076 120.334 29.6822C120.579 30.2075 120.821 30.7215 121.06 31.2241C121.294 31.7039 121.558 32.1543 121.85 32.5753C122.034 32.5402 122.152 32.5297 122.204 32.5437C122.308 32.4762 122.415 32.4201 122.525 32.3753C122.657 32.3262 122.802 32.2749 122.957 32.2214L123.329 32.1148L123.548 32.4306C123.598 32.5402 123.741 32.6323 123.975 32.7069C124.28 32.6727 124.515 32.6994 124.68 32.7871C124.839 32.8521 124.99 32.9306 125.133 33.0227C125.246 33.0963 125.355 33.1472 125.458 33.1753L126.024 33.2818L125.87 33.8476C125.737 34.3019 125.498 34.7646 125.152 35.2356C124.824 35.6794 124.425 36.0771 123.955 36.4289C124.011 36.5613 124.055 36.6959 124.087 36.8328C124.137 36.9424 124.202 37.0613 124.28 37.1893C124.441 37.5638 124.593 37.952 124.737 38.3537C124.88 38.7554 124.98 39.1773 125.037 39.6193L125 39.7693ZM113.616 35.7525C114.296 35.5753 114.907 35.4113 115.448 35.2605C116.008 35.0824 116.617 34.8592 117.275 34.5908C116.951 33.9374 116.611 33.2633 116.254 32.5686C115.891 31.8512 115.519 31.1473 115.139 30.457L115.013 30.8385C114.666 31.4051 114.344 32.0266 114.048 32.7028C113.774 33.3747 113.549 34.0013 113.375 34.5829C113.285 34.8144 113.196 35.046 113.106 35.2775C113.017 35.5091 112.939 35.7384 112.872 35.9656C113.005 35.9165 113.129 35.881 113.244 35.859C113.382 35.8327 113.506 35.7972 113.616 35.7525ZM136.989 40.0957C136.393 40.4238 135.74 40.7628 135.029 41.1127C134.318 41.4627 133.582 41.71 132.823 41.8547C131.671 42.074 130.694 41.9621 129.891 41.5192C129.717 41.2903 129.573 41.139 129.459 41.0653C129.368 40.9872 129.277 40.9092 129.187 40.8311C129.114 40.7258 129.044 40.5842 128.978 40.4061C128.626 40.1395 128.32 39.8163 128.062 39.4365C127.798 39.0339 127.58 38.6225 127.408 38.2024C127.254 37.7551 127.134 37.3012 127.049 36.8407C126.987 36.3758 126.965 35.9272 126.982 35.4948C127.007 35.3948 127.008 35.2992 126.987 35.208C126.988 35.1124 126.987 35.0054 126.983 34.887C126.988 34.5045 126.996 34.1335 127.007 33.7739C127.041 33.4099 127.121 33.085 127.245 32.799C127.105 32.6113 127.05 32.3833 127.083 32.1149C127.116 31.8465 127.165 31.5987 127.232 31.3715C127.348 30.4436 127.44 29.6634 127.507 29.031C127.591 28.3714 127.678 27.7232 127.767 27.0865C127.915 25.9857 128.043 24.9007 128.15 23.8316C128.258 22.7624 128.311 21.62 128.312 20.4043C128.469 20.2552 128.588 20.1491 128.669 20.0859C128.797 20.014 128.904 19.9579 128.99 19.9175C129.454 20.0438 129.986 20.157 130.587 20.257C131.183 20.3342 131.665 20.3377 132.033 20.2675C132.245 20.3465 132.381 20.4157 132.444 20.4754C132.5 20.5122 132.557 20.5491 132.614 20.5859C132.938 20.8341 133.23 21.1003 133.489 21.3845C133.744 21.6459 133.896 22.034 133.946 22.5489C133.857 22.7804 133.777 22.9028 133.708 22.9159C133.701 23.394 133.667 23.8058 133.604 24.1513C133.565 24.4925 133.514 24.8359 133.452 25.1815C133.372 25.5543 133.303 25.9248 133.246 26.2932C133.189 26.6616 133.174 27.1054 133.201 27.6246C133.136 27.7562 133.091 27.872 133.067 27.972C133.065 28.0676 133.055 28.1768 133.036 28.2996C133.017 28.4224 132.989 28.5588 132.953 28.7087C132.934 28.8315 132.878 28.9495 132.784 29.0626C132.856 29.6687 132.854 30.1695 132.78 30.5651C132.728 30.9563 132.665 31.3497 132.59 31.7453C132.471 32.4592 132.374 33.1688 132.301 33.874C132.251 34.5748 132.303 35.3514 132.457 36.204C132.561 36.1365 132.659 36.0939 132.751 36.0764C132.866 36.0545 132.97 36.0347 133.062 36.0172C133.269 35.9777 133.519 35.9659 133.812 35.9817C134.416 35.4852 135.113 35.1261 135.902 34.9042C136.715 34.6779 137.521 34.4766 138.322 34.3003C138.644 34.2389 138.967 34.1775 139.289 34.1161C139.611 34.0548 139.905 33.9749 140.171 33.8767C140.405 33.9513 140.548 33.9956 140.599 34.0096C140.668 33.9964 140.76 33.9789 140.875 33.957C141.037 33.9263 141.177 33.9114 141.298 33.9122C141.634 34.1105 141.942 34.2425 142.222 34.3083C142.502 34.3741 142.792 34.4262 143.089 34.4648C143.364 34.5078 143.63 34.5644 143.888 34.6346C144.163 34.6776 144.437 34.7683 144.71 34.9069L145.301 36.3318C145.511 36.5063 145.612 36.63 145.606 36.7028C145.649 36.8852 145.635 37.0308 145.565 37.1396L145.723 37.5027C145.394 37.6369 145.171 37.7628 145.055 37.8803C144.961 37.9934 144.87 38.118 144.782 38.2539C144.604 38.3118 144.468 38.3495 144.376 38.3671C144.307 38.3802 144.238 38.3934 144.169 38.4065C143.847 38.4679 143.469 38.5995 143.035 38.8012C142.365 38.7144 141.696 38.7345 141.028 38.8617C140.775 38.91 140.513 38.9718 140.242 39.0472C139.971 39.1226 139.7 39.1981 139.429 39.2735C139.164 39.3717 138.884 39.4608 138.59 39.5406C138.319 39.616 138.034 39.6822 137.735 39.7392L136.989 40.0957ZM161.52 15.6881C161.581 15.8434 161.611 15.9688 161.609 16.0644C161.626 16.1328 161.63 16.2034 161.624 16.2762C161.64 16.3446 161.659 16.4244 161.68 16.5157C161.697 16.5841 161.747 16.6937 161.831 16.8446C161.531 17.712 161.094 18.3554 160.52 18.7746C159.963 19.1667 159.332 19.5013 158.628 19.7784C157.918 20.0328 157.188 20.3029 156.438 20.5888C155.711 20.8704 155.021 21.3116 154.37 21.9124C154.043 21.8553 153.767 21.908 153.541 22.0702C153.338 22.2281 153 22.3281 152.529 22.3702C152.423 22.5333 152.275 22.6688 152.084 22.7767C151.888 22.8618 151.694 22.9583 151.503 23.0662C151.644 23.2539 151.73 23.4639 151.761 23.6964C151.81 23.9016 151.885 24.0661 151.986 24.1897C152.808 24.1047 153.692 23.9244 154.637 23.649C155.606 23.3692 156.559 23.1281 157.498 22.9255C157.548 23.0351 157.555 23.1171 157.52 23.1715C157.479 23.2031 157.481 23.2623 157.526 23.3491C157.714 23.4324 157.91 23.55 158.115 23.7017C158.314 23.8306 158.513 23.9596 158.712 24.0885C158.911 24.2174 159.105 24.3236 159.293 24.4069C159.499 24.463 159.714 24.4578 159.939 24.3911C160.074 24.556 160.18 24.7503 160.258 24.974C160.352 25.1704 160.381 25.3915 160.343 25.637C160.034 25.9581 159.728 26.2905 159.424 26.6343C159.115 26.9553 158.778 27.2579 158.412 27.5421C158.07 27.8219 157.684 28.074 157.256 28.2986C156.846 28.4959 156.362 28.6358 155.804 28.7182C155.689 28.7402 155.596 28.7577 155.527 28.7709C155.481 28.7796 155.404 28.7586 155.296 28.7077C155.139 28.8568 154.882 28.9415 154.526 28.9616C154.193 28.9774 153.948 29.0599 153.79 29.209C153.51 29.1432 153.188 29.1568 152.825 29.2497C152.48 29.3155 152.158 29.3291 151.861 29.2905C151.606 29.8396 151.394 30.4163 151.224 31.0206C151.055 31.6249 150.928 32.2568 150.844 32.9164C151.654 32.8813 152.309 32.8042 152.81 32.6849C153.334 32.5612 153.821 32.4327 154.271 32.2994C154.715 32.1433 155.174 31.9964 155.646 31.8587C156.113 31.6982 156.718 31.5592 157.46 31.4417C157.861 31.1031 158.364 30.8404 158.97 30.6536C159.593 30.4396 160.148 30.191 160.634 29.9077C160.834 29.941 161.025 30.0357 161.207 30.1918C161.383 30.3252 161.547 30.4607 161.7 30.5984C161.871 30.7089 162.039 30.808 162.204 30.8957C162.369 30.9834 162.552 30.9962 162.754 30.9339C162.868 31.0076 162.953 31.1106 163.008 31.2431C163.081 31.3483 163.143 31.4558 163.193 31.5654C163.243 31.675 163.302 31.7711 163.369 31.8535C163.455 31.9088 163.564 31.9119 163.696 31.8628C163.53 32.6811 163.265 33.3393 162.902 33.8375C162.556 34.3085 162.12 34.7015 161.593 35.0163C161.066 35.3312 160.459 35.6136 159.773 35.8636C159.109 36.1092 158.37 36.3929 157.556 36.7148C157.36 36.7999 157.184 36.8214 157.03 36.7793C156.881 36.76 156.714 36.7678 156.53 36.8029C156.028 37.0178 155.419 37.241 154.704 37.4726C153.989 37.7041 153.249 37.8808 152.483 38.0027C151.718 38.1247 150.969 38.1602 150.235 38.1093C149.506 38.0812 148.872 37.8922 148.331 37.5422C148.109 37.4177 147.939 37.2593 147.822 37.0673C147.722 36.848 147.531 36.7055 147.251 36.6397C147.158 36.3476 147.033 36.0257 146.878 35.674C146.722 35.3223 146.564 34.9591 146.403 34.5846C146.236 34.1873 146.084 33.7992 145.946 33.4203C145.831 33.037 145.77 32.6791 145.763 32.3467C145.751 31.9915 145.816 31.6573 145.959 31.3442C146.124 31.0266 146.134 30.7148 145.99 30.4087C146.099 30.364 146.155 30.2938 146.156 30.1982C146.152 30.0798 146.233 30.0167 146.4 30.0088C146.441 29.572 146.498 29.1558 146.573 28.7602C146.648 28.3647 146.725 27.9805 146.805 27.6077C146.908 27.2306 147 26.8556 147.08 26.4828C147.177 26.0829 147.255 25.6509 147.314 25.1869C146.921 24.9519 146.604 24.6786 146.361 24.3673C146.137 24.0287 145.949 23.695 145.799 23.366C145.643 23.0143 145.499 22.6604 145.367 22.3043C145.229 21.9254 145.056 21.5531 144.849 21.1873C144.998 20.8014 145.209 20.4751 145.483 20.2085C145.774 19.9147 146.099 19.6621 146.458 19.4507C146.817 19.2393 147.216 19.0442 147.655 18.8652C148.094 18.6863 148.553 18.4916 149.032 18.2811C149.883 17.8092 150.646 17.4255 151.322 17.1299C152.021 16.83 152.705 16.5686 153.374 16.3458C154.061 16.0959 154.773 15.8529 155.511 15.617C156.249 15.3811 157.08 15.0798 158.004 14.7132C158.26 14.8789 158.48 14.9443 158.664 14.9092C158.708 14.6864 158.798 14.6097 158.935 14.679C159.089 14.7211 159.13 14.6417 159.059 14.4408C159.381 14.7847 159.747 15.0605 160.157 15.2684C160.585 15.4491 161.039 15.589 161.52 15.6881ZM57.8175 84.3175C57.9719 84.3596 58.0795 84.4583 58.1404 84.6136C58.2013 84.7688 58.231 84.8942 58.2296 84.9898C57.9396 85.5933 57.7384 86.013 57.6259 86.2489C57.5134 86.4849 57.4362 86.6664 57.3942 86.7936C57.3467 86.898 57.2851 86.9931 57.2092 87.0791C57.1564 87.1607 57.0188 87.3418 56.7967 87.6224C55.9067 88.4355 54.9659 89.1867 53.9743 89.8761C53.0058 90.5611 51.9446 91.1089 50.7907 91.5193C50.666 91.8053 50.3497 92.0443 49.8418 92.2363C49.3623 92.4468 48.9147 92.6394 48.4988 92.8139C48.3959 92.7858 48.3221 92.7284 48.2775 92.6415C48.2613 92.5731 48.2017 92.5249 48.0988 92.4968C48.1298 92.7292 48.0533 92.863 47.8691 92.8981C47.6903 92.956 47.4493 92.9542 47.1459 92.8928C46.871 92.8498 46.5623 92.7656 46.2197 92.6402C45.9056 92.5332 45.6287 92.431 45.389 92.3336C45.3171 92.538 45.2338 92.7446 45.1389 92.9533C45.0671 93.1577 44.9472 93.3116 44.7792 93.4151C44.5151 93.4177 44.3113 93.4208 44.1678 93.4243C44.0472 93.4234 43.9429 93.491 43.8549 93.6269C43.7005 93.5848 43.5665 93.5269 43.4527 93.4532C43.362 93.3752 43.2598 93.2993 43.1461 93.2256C43.0608 93.1704 42.9524 93.1195 42.8211 93.073C42.7128 93.0221 42.5611 92.9914 42.3661 92.9809C42.3905 92.8809 42.335 92.7485 42.1997 92.5836C42.0589 92.3959 41.891 92.2968 41.696 92.2862C41.7502 92.1091 41.6582 91.924 41.4199 91.731C41.1992 91.5109 41.0077 91.2613 40.8453 90.9824C40.8318 90.7228 40.8014 90.4425 40.7541 90.1417C40.7068 89.8409 40.8044 89.6435 41.0468 89.5497C40.9859 89.3944 40.919 89.2642 40.8459 89.1589C40.7728 89.0537 40.6997 88.9484 40.6266 88.8432C40.7553 88.6756 40.8325 88.4941 40.8583 88.2985C40.8787 88.0801 40.8876 87.8639 40.8849 87.6499C40.8823 87.4359 40.8912 87.2196 40.9116 87.0012C40.932 86.7828 41.018 86.5877 41.1697 86.4158C41.2147 85.6922 41.2568 85.1598 41.2962 84.8186C41.3302 84.4546 41.3323 84.1086 41.3026 83.7805C41.296 83.4481 41.2839 83.0929 41.2664 82.7149C41.272 82.3324 41.3134 81.8478 41.3908 81.2611C41.2867 80.9234 41.2509 80.6203 41.2835 80.352C41.3106 80.0608 41.3405 79.781 41.3731 79.5126C41.4233 79.217 41.4505 78.9258 41.4547 78.639C41.4534 78.3294 41.3607 77.9895 41.1767 77.6193C40.8598 77.7035 40.6566 77.8614 40.5671 78.093C40.4723 78.3017 40.4397 78.5701 40.4694 78.8981C40.3284 79.1157 40.1198 79.2507 39.8436 79.3034C39.5849 79.3288 39.3601 79.3954 39.1691 79.5033C38.2875 79.3375 37.5117 79.0086 36.8415 78.5166C36.1713 78.0245 35.5803 77.4101 35.0687 76.6733C35.1515 76.1093 35.3595 75.6168 35.6928 75.1958C36.0207 74.752 36.4223 74.3657 36.8978 74.0368C37.3678 73.6851 37.8859 73.3838 38.4521 73.1329C39.0128 72.8593 39.5532 72.6014 40.0734 72.3594C40.9334 72.0287 41.7881 71.6752 42.6373 71.299C43.4865 70.9227 44.4373 70.6701 45.4896 70.5412C45.6115 70.4465 45.7645 70.3816 45.9487 70.3465C46.1505 70.2842 46.355 70.2333 46.5623 70.1939C46.7695 70.1544 46.9652 70.1171 47.1494 70.0821C47.3512 70.0198 47.513 69.9413 47.6349 69.8466C47.7825 69.9615 47.9653 70.022 48.1833 70.0281C48.419 70.0071 48.6851 70.0637 48.9816 70.1979C49.2092 69.94 49.4286 69.8505 49.6399 69.9295C49.8741 70.004 50.0881 70.0944 50.2817 70.2005C50.4753 70.3066 50.6547 70.4036 50.8199 70.4913C51.0081 70.5746 51.1828 70.6009 51.344 70.5702C51.5538 70.7448 51.7955 70.9013 52.069 71.0399C52.3655 71.1741 52.6418 71.3241 52.8977 71.4899C53.1712 71.6285 53.4041 71.7986 53.5963 72.0004C53.8115 72.1977 53.9543 72.4446 54.0247 72.7411C54.0287 72.8595 54.0795 72.9213 54.177 72.9266C54.2745 72.9319 54.3543 72.9643 54.4166 73.0239C54.6073 73.7265 54.6383 74.3642 54.5094 74.9369C54.3982 75.4825 54.2098 76.007 53.9442 76.5104C53.7016 77.0095 53.4076 77.4945 53.0621 77.9655C52.7396 78.4321 52.4571 78.915 52.2146 79.414C52.5151 79.6666 52.8421 79.8785 53.1955 80.0495C53.5489 80.2205 53.9023 80.3916 54.2557 80.5626C54.6321 80.7293 54.9882 80.9117 55.324 81.11C55.6598 81.3082 55.9604 81.5608 56.2257 81.8678C56.2826 81.9046 56.3509 81.9393 56.4308 81.9717C56.5053 81.9814 56.5825 82.0024 56.6624 82.0349C56.7856 82.2498 56.9345 82.4717 57.1091 82.7006C57.2783 82.9067 57.4245 83.1172 57.5476 83.3321C57.6884 83.5198 57.792 83.7027 57.8583 83.8807C57.9191 84.036 57.9056 84.1816 57.8175 84.3175ZM49.0291 74.0501C47.8441 74.2281 46.6942 74.5544 45.5795 75.0289C44.4878 75.499 43.6047 76.0366 42.9301 76.6418C43.3972 76.8866 43.8562 77.0971 44.3071 77.2734C44.7811 77.4453 45.1845 77.726 45.5176 78.1154C46.3289 77.5795 47.0151 76.9721 47.5759 76.2933C48.1314 75.5916 48.6158 74.8439 49.0291 74.0501ZM52.0665 84.8766C52.0815 84.6354 52.1648 84.4289 52.3166 84.2569C52.4683 84.085 52.6227 83.9245 52.7799 83.7754C52.9316 83.6035 53.0603 83.436 53.166 83.2729C53.2663 83.0869 53.2724 82.8593 53.1845 82.59C52.3558 82.3427 51.6225 82.244 50.9846 82.294C50.3644 82.3168 49.7888 82.4264 49.2579 82.6229C48.7445 82.7921 48.2536 83.0048 47.7849 83.2609C47.3393 83.5127 46.8713 83.721 46.381 83.8859C46.2846 84.5954 46.1903 85.3642 46.0979 86.1922C46.0056 87.0202 45.9193 87.8232 45.8391 88.6011C46.5082 88.3784 47.1089 88.1209 47.6412 87.8289C48.1681 87.514 48.6693 87.1921 49.1447 86.8632C49.6432 86.5299 50.1187 86.201 50.5711 85.8765C51.0411 85.5248 51.5396 85.1915 52.0665 84.8766ZM75.5206 66.4302C75.6857 66.9231 75.8691 67.3411 76.0707 67.684C76.2724 68.027 76.4829 68.3563 76.7022 68.6721C76.893 68.9694 77.0723 69.2689 77.2402 69.5707C77.4256 69.8452 77.5927 70.1947 77.7416 70.6192C77.698 71.2472 77.6897 71.8209 77.7166 72.3401C77.7666 72.855 77.8104 73.3948 77.8481 73.9597C77.6691 74.828 77.4799 75.6029 77.2806 76.2844C77.0813 76.9659 76.9322 77.5545 76.8331 78.05C76.7451 78.186 76.6739 78.3425 76.6197 78.5197C76.5831 78.6697 76.5377 78.8333 76.4834 79.0104C76.4536 79.0876 76.4204 79.2012 76.3838 79.3512C76.3472 79.5012 76.3113 79.6034 76.276 79.6577L75.5285 79.5499L75.5932 80.4313L75.1422 80.6603L74.8942 81.1365C74.6353 81.9724 74.3263 82.6986 73.9672 83.3152C73.6027 83.909 73.1583 84.4704 72.6341 84.9992C72.1274 85.5009 71.5233 85.9974 70.8216 86.4885C70.143 86.9753 69.3688 87.516 68.4992 88.1107C68.097 88.1396 67.7462 88.1826 67.4469 88.2396C67.1652 88.2694 66.895 88.2971 66.6364 88.3225C66.1989 88.4058 65.6498 88.4747 64.9889 88.529C64.8765 88.3597 64.7432 88.2541 64.5888 88.212C64.4344 88.1699 64.2997 88.1598 64.1846 88.1817C63.7499 88.0738 63.3884 87.8686 63.1 87.566C62.8293 87.2362 62.5531 86.8836 62.2716 86.5082C62.0969 86.2792 61.9277 86.0731 61.7639 85.8898C61.5947 85.6837 61.414 85.4797 61.2217 85.278L61.7683 84.9952L60.8138 84.3189C60.7515 84.2593 60.6804 84.2132 60.6005 84.1807C60.5152 84.1255 60.4414 84.068 60.3791 84.0084L60.2148 83.4677C59.7725 81.9073 59.3971 80.4772 59.0888 79.1773C58.7981 77.8503 58.7037 76.6407 58.8056 75.5487L58.7163 75.1725C58.6664 74.6576 58.6381 74.234 58.6314 73.9015C58.6194 73.5463 58.6012 73.2161 58.5769 72.9109C58.527 72.396 58.5197 71.9088 58.555 71.4492C58.8611 71.3194 59.0731 71.1479 59.191 70.9348C59.3035 70.6988 59.3984 70.4901 59.4756 70.3085C59.7925 70.2243 60.0221 70.2283 60.1642 70.3204C60.3064 70.4125 60.4648 70.573 60.6394 70.8019C60.8032 70.9852 60.9955 71.1869 61.2161 71.4071C61.4598 71.6229 61.7706 71.7663 62.1484 71.8373C62.2377 72.011 62.3413 72.1939 62.459 72.386C62.5944 72.5509 62.7352 72.7386 62.8814 72.9491C63.1575 73.3017 63.416 73.6815 63.657 74.0884C63.9155 74.4682 64.1023 74.8498 64.2172 75.2331C64.0898 75.7102 64.0246 76.247 64.0217 76.8434C64.0418 77.4355 64.0992 78.0323 64.1938 78.634C64.306 79.2085 64.45 79.765 64.6259 80.3036C64.8194 80.8149 65.0285 81.2399 65.2532 81.5785L65.5659 81.9837L66.1368 81.8034C66.7842 81.4894 67.3599 81.1772 67.8637 80.8667C68.3852 80.529 68.8526 80.1659 69.2657 79.7774C69.6789 79.3888 70.0582 78.9591 70.4037 78.4881C70.7438 77.9943 71.0934 77.4391 71.4525 76.8225C71.8115 76.2059 72.0853 75.534 72.2738 74.8069C72.4799 74.0526 72.6115 73.2886 72.6686 72.515C72.7488 71.737 72.7626 70.9836 72.71 70.2547C72.675 69.4987 72.6048 68.797 72.4994 68.1497C72.8584 67.9383 72.9892 67.6274 72.8918 67.2169L72.7335 66.8538C72.6089 66.7345 72.571 66.5749 72.6199 66.3749C72.6552 65.9153 72.8991 65.5232 73.3515 65.1987C73.774 65.3566 74.1558 65.546 74.497 65.7671C74.8613 65.9837 75.2025 66.2048 75.5206 66.4302ZM77.3496 70.3364C77.3972 69.8268 77.5531 69.3681 77.8173 68.9602C78.1045 68.548 78.4283 68.1884 78.7886 67.8814C79.1666 67.5472 79.5668 67.2565 79.9895 67.0091C80.4121 66.7618 80.817 66.5416 81.2044 66.3487C82.0334 65.7856 82.9254 65.2344 83.8803 64.6949C84.8528 64.1284 85.8477 63.6052 86.8649 63.1254C87.9051 62.6413 88.9927 62.2554 90.1276 61.9677C91.2572 61.6572 92.4984 61.5638 93.8512 61.6875C93.9744 61.9024 94.1294 62.0993 94.3162 62.2782C94.503 62.4572 94.6899 62.6361 94.8767 62.815C95.0865 62.9896 95.2734 63.1685 95.4372 63.3518C95.5956 63.5123 95.7106 63.693 95.7823 63.8939C96.0612 64.0553 96.2995 64.2482 96.4972 64.4728C96.6894 64.6745 96.7855 64.978 96.7853 65.3832C96.5984 65.6095 96.4087 65.8244 96.2163 66.0279C96.0416 66.2042 95.8411 66.3734 95.6149 66.5357C94.7143 66.4927 93.8347 66.5887 92.976 66.8238C92.1174 67.0588 91.3481 67.2649 90.6682 67.4421C90.4123 67.2763 90.1347 67.222 89.8354 67.279C89.5591 67.3316 89.2706 67.4342 88.9699 67.5868C88.6923 67.735 88.4031 67.8855 88.1024 68.0381C87.8247 68.1863 87.5423 68.2639 87.2552 68.2709C87.0683 68.4972 86.8102 68.6775 86.4811 68.8117C86.1696 68.9187 85.8236 69.0322 85.443 69.1524C85.447 69.2708 85.489 69.3462 85.5688 69.3787C85.6433 69.3883 85.6711 69.4546 85.6521 69.5774C85.8281 69.7107 86.0278 69.7918 86.2512 69.8208C86.4977 69.8453 86.7442 69.8699 86.9906 69.8944C87.2601 69.9146 87.5005 69.9642 87.7117 70.0431C87.9175 70.0993 88.082 70.2348 88.2052 70.4497C88.5506 70.3839 88.8688 70.4067 89.1599 70.5181C89.4511 70.6295 89.7042 70.7839 89.9195 70.9812C90.1348 71.1786 90.3094 71.4075 90.4434 71.668C90.595 71.9013 90.6951 72.1206 90.7438 72.3258C90.8561 72.4951 90.9557 72.5596 91.0423 72.5192C91.129 72.4789 91.2435 72.5047 91.3856 72.5968C91.525 72.8801 91.7707 73.1551 92.1227 73.4218C92.4693 73.6656 92.7665 73.9546 93.0142 74.2888C93.1955 74.8501 93.3518 75.3567 93.483 75.8084C93.6088 76.2373 93.6337 76.6973 93.5577 77.1885C93.4125 78.098 93.1075 78.9427 92.6427 79.7224C92.201 80.4978 91.6509 81.2223 90.9925 81.8959C90.3518 82.5423 89.6372 83.1312 88.8489 83.6628C88.0605 84.1943 87.2817 84.6644 86.5123 85.0731C86.4148 85.0678 86.3227 85.0854 86.2361 85.1257C86.1494 85.1661 86.1128 85.1134 86.1264 84.9678C85.9801 85.1626 85.7972 85.3046 85.5778 85.3941C85.3814 85.4792 85.1539 85.5344 84.8952 85.5599C84.642 85.6081 84.3745 85.6471 84.0928 85.6769C83.8341 85.7024 83.5951 85.7598 83.3757 85.8493C83.1766 85.7204 82.9891 85.5892 82.8131 85.4559C82.6655 85.341 82.5301 85.1761 82.407 84.9612C82.2919 84.9831 82.2208 84.9371 82.1937 84.8231C82.1897 84.7047 82.1417 84.6542 82.0496 84.6718C82.1336 84.4174 82.1614 84.281 82.133 84.2626C82.1222 84.217 82.0795 84.1894 82.005 84.1797C81.9536 84.1657 81.9021 84.1516 81.8507 84.1376C81.7938 84.1008 81.7688 84.046 81.7756 83.9732C81.8244 83.7732 81.8102 83.5614 81.7331 83.3377C81.6506 83.0912 81.568 82.8448 81.4855 82.5983C81.403 82.3518 81.3577 82.1102 81.3497 81.8734C81.3646 81.6322 81.494 81.4168 81.7379 81.2274C82.5423 81.1695 83.2736 81.0064 83.9319 80.738C84.6078 80.4424 85.2241 80.0986 85.7808 79.7065C86.3375 79.3145 86.8543 78.9062 87.3311 78.4817C87.831 78.0528 88.3274 77.6603 88.8205 77.3042C88.8409 77.0858 88.8924 76.8972 88.9751 76.7385C89.0807 76.5753 89.1891 76.4236 89.3002 76.2833C89.4113 76.1429 89.5082 75.9934 89.5909 75.8346C89.6735 75.6759 89.7135 75.4895 89.7109 75.2755C89.6961 75.1115 89.6284 75.029 89.5078 75.0281C89.4049 75.0001 89.3372 74.9176 89.3048 74.7808L88.9006 74.7505C88.4036 74.583 87.8599 74.472 87.2695 74.4177C86.6736 74.3405 86.1557 74.2365 85.7156 74.1058C85.4948 74.2909 85.2611 74.3711 85.0147 74.3466C84.7912 74.3176 84.4987 74.3018 84.1371 74.2992C83.3435 74.4027 82.5648 74.4676 81.801 74.4939C81.0602 74.5158 80.3208 74.4421 79.5828 74.2728C79.5097 74.1676 79.4278 74.0759 79.3371 73.9979C79.2464 73.9198 79.1144 73.9211 78.941 74.0018C78.7596 73.8457 78.5809 73.7009 78.4049 73.5676C78.2234 73.4115 78.0508 73.2418 77.887 73.0585C77.8682 72.776 77.8486 72.5414 77.8284 72.3546C77.8027 72.145 77.6876 71.9643 77.4832 71.8125C77.505 71.4985 77.5172 71.2459 77.52 71.0547C77.5228 70.8635 77.466 70.6241 77.3496 70.3364ZM103.606 78.9213C103.884 79.5836 103.965 80.1282 103.85 80.5554C103.757 80.9781 103.549 81.3158 103.224 81.5684C102.927 81.8394 102.551 82.0302 102.096 82.1407C101.641 82.2512 101.198 82.3117 100.767 82.3223C100.461 82.0468 100.159 81.6872 99.8617 81.2434C99.5639 80.7996 99.2749 80.3422 98.9948 79.8712C98.7092 79.3774 98.4378 78.8928 98.1807 78.4174C97.9465 77.9376 97.7374 77.5126 97.5534 77.1425C97.6036 76.8469 97.5996 76.5259 97.5415 76.1794C97.501 75.8058 97.4375 75.4365 97.3509 75.0717C97.2874 74.7024 97.2124 74.3353 97.1258 73.9705C97.0569 73.5784 97.0049 73.2069 96.9698 72.8561C96.9037 71.8676 96.9176 70.9116 97.0113 69.988C97.1281 69.06 97.1677 68.111 97.1301 67.1409C97.1274 66.9269 97.0584 66.7374 96.9231 66.5726C96.8107 66.4033 96.7586 66.2344 96.7668 66.066C96.7682 65.9704 96.8238 65.9003 96.9335 65.8555C97.0378 65.788 97.0879 65.695 97.0839 65.5766C97.0934 65.3126 97.0563 65.1052 96.9724 64.9543C96.9115 64.7991 96.9115 64.5964 96.9726 64.3465C97.0444 64.1421 97.1203 63.8535 97.2004 63.4808C97.298 63.0808 97.2778 62.6914 97.1398 62.3125C97.3146 62.1362 97.4724 61.9393 97.6133 61.7218C97.7542 61.5042 97.9005 61.3095 98.0523 61.1376C98.2216 60.9385 98.4079 60.76 98.6111 60.6022C98.8373 60.4399 99.1231 60.3259 99.4684 60.2601C99.7067 60.4531 99.8813 60.682 99.9923 60.9469C100.126 61.2074 100.249 61.4701 100.36 61.7349C100.494 61.9954 100.648 62.2402 100.823 62.4691C100.992 62.6752 101.231 62.8204 101.54 62.9046C101.583 63.087 101.637 63.3151 101.702 63.5887C101.767 63.8624 101.843 64.1338 101.931 64.4031C102.014 64.6496 102.116 64.8803 102.24 65.0951C102.38 65.2828 102.551 65.3934 102.751 65.4267C102.597 66.6003 102.462 67.758 102.348 68.9C102.257 70.0376 102.226 71.1756 102.256 72.3141C102.28 73.4298 102.387 74.5415 102.577 75.6493C102.791 76.7527 103.134 77.8434 103.606 78.9213ZM113.783 72.9787C113.587 73.0638 113.467 73.2177 113.424 73.4405C113.375 73.6404 113.329 73.8518 113.285 74.0746C113.265 74.293 113.23 74.5022 113.182 74.7022C113.15 74.875 113.054 74.9767 112.893 75.0074C112.913 75.1942 112.882 75.367 112.799 75.5258C112.74 75.6801 112.683 75.8459 112.629 76.0231C112.569 76.1774 112.538 76.3502 112.535 76.5414C112.527 76.7098 112.596 76.8993 112.742 77.1098C112.59 77.2817 112.521 77.4975 112.535 77.7571C112.548 78.0167 112.547 78.2671 112.532 78.5083C112.54 78.7452 112.494 78.9565 112.394 79.1425C112.294 79.3284 112.057 79.4451 111.683 79.4924C111.635 79.5968 111.637 79.656 111.689 79.67C111.74 79.6841 111.794 79.7573 111.849 79.8898C111.585 79.8924 111.392 79.9411 111.27 80.0358C111.177 80.1489 111.041 80.2345 110.862 80.2923C110.392 80.2388 109.967 80.0695 109.586 79.7845C109.229 79.495 108.886 79.167 108.559 78.8004C108.249 78.4065 107.95 78.0105 107.663 77.6123C107.399 77.2097 107.149 76.8641 106.912 76.5756C106.922 76.3116 106.876 76.0699 106.776 75.8506C106.671 75.6086 106.541 75.4187 106.388 75.281C106.954 72.6944 107.585 69.9285 108.282 66.9832C108.979 64.0379 109.615 61.14 110.191 58.2894C110.769 58.3938 111.344 58.5346 111.915 58.7117C112.504 58.8617 113.046 59.0683 113.542 59.3314C114.061 59.5902 114.524 59.9191 114.931 60.3182C115.333 60.6945 115.645 61.1475 115.867 61.6773C115.854 61.8229 115.81 61.8908 115.735 61.8812C115.678 61.8443 115.635 61.8645 115.605 61.9417C115.724 62.0382 115.789 62.1092 115.8 62.1548C115.834 62.1961 115.845 62.2417 115.832 62.2917C115.843 62.3373 115.859 62.4057 115.881 62.4969C115.897 62.5653 115.956 62.6614 116.058 62.785C115.96 62.7798 115.894 62.8043 115.859 62.8587C115.846 62.9087 115.777 62.9219 115.651 62.8982C115.803 63.1315 115.875 63.3324 115.867 63.5008C115.881 63.6648 115.871 63.8218 115.834 63.9718C115.792 64.0989 115.767 64.2467 115.759 64.4151C115.745 64.5607 115.8 64.741 115.923 64.9559C115.854 64.969 115.802 65.0028 115.767 65.0572C115.749 65.0844 115.734 65.1229 115.722 65.1729C115.704 65.2001 115.678 65.2409 115.643 65.2953C115.625 65.3225 115.579 65.3313 115.504 65.3216C115.692 65.8102 115.835 66.3075 115.931 66.8136C116.026 67.3197 116.125 67.8371 116.227 68.366C116.346 68.8677 116.484 69.4015 116.642 69.9672C116.795 70.5101 117.011 71.0649 117.29 71.6315C118.005 70.9947 118.515 70.254 118.82 69.4094C119.148 68.5604 119.351 67.6398 119.429 66.6478C119.529 65.6515 119.533 64.602 119.44 63.4995C119.347 62.397 119.26 61.2695 119.179 60.1169C119.337 59.8722 119.439 59.5907 119.484 59.2723C119.529 58.9539 119.559 58.6263 119.576 58.2895C119.586 57.9299 119.6 57.5817 119.617 57.2449C119.627 56.8853 119.67 56.5555 119.743 56.2555C120.099 56.2353 120.414 56.2946 120.687 56.4331C120.978 56.5445 121.252 56.6831 121.508 56.8489C121.758 56.9919 122.02 57.1326 122.294 57.2712C122.562 57.387 122.874 57.4348 123.23 57.4146C123.599 57.7497 123.941 58.0777 124.258 58.3988C124.575 58.7198 124.816 59.079 124.983 59.4763C124.911 59.6807 124.867 59.9034 124.852 60.1446C124.86 60.3815 124.857 60.6205 124.842 60.8617C124.827 61.1029 124.786 61.3371 124.72 61.5642C124.648 61.7686 124.525 61.9589 124.35 62.1352C124.422 62.7413 124.459 63.3061 124.463 63.8298C124.485 64.3262 124.495 64.8248 124.493 65.3257C124.515 65.8221 124.553 66.3392 124.608 66.8768C124.658 67.3917 124.768 67.9548 124.937 68.5661C124.877 69.1257 124.814 69.7217 124.748 70.3541C124.681 70.9865 124.647 71.5531 124.645 72.0539C124.347 72.4205 124.143 72.8288 124.034 73.2788C123.924 73.7287 123.802 74.1809 123.669 74.6352C123.599 74.744 123.547 74.7777 123.513 74.7365C123.479 74.6953 123.39 74.6764 123.247 74.6799C123.292 74.7668 123.308 74.8352 123.296 74.8852C123.283 74.9352 123.26 74.9874 123.224 75.0417C123.207 75.0689 123.195 75.1189 123.188 75.1917C123.204 75.2601 123.249 75.347 123.322 75.4522C123.032 75.6504 122.79 75.8991 122.596 76.1982C122.403 76.4973 122.18 76.7779 121.93 77.0402C121.702 77.2981 121.389 77.5007 120.991 77.648C120.616 77.791 120.079 77.8098 119.38 77.7046C118.274 77.2002 117.247 76.5735 116.299 75.8245C115.375 75.071 114.536 74.1224 113.783 72.9787ZM142.844 53.8219C142.905 53.9771 142.935 54.1025 142.934 54.1981C142.95 54.2666 142.954 54.3372 142.948 54.41C142.964 54.4784 142.983 54.5582 143.004 54.6494C143.021 54.7178 143.071 54.8275 143.155 54.9783C142.855 55.8458 142.418 56.4891 141.844 56.9084C141.287 57.3004 140.657 57.635 139.952 57.9122C139.243 58.1665 138.513 58.4367 137.762 58.7226C137.035 59.0041 136.345 59.4453 135.694 60.0461C135.368 59.9891 135.091 60.0417 134.865 60.204C134.662 60.3619 134.325 60.4618 133.853 60.5039C133.748 60.6671 133.599 60.8026 133.408 60.9105C133.212 60.9955 133.018 61.092 132.827 61.1999C132.968 61.3876 133.054 61.5977 133.085 61.8301C133.134 62.0353 133.209 62.1998 133.31 62.3235C134.132 62.2384 135.016 62.0582 135.961 61.7828C136.93 61.503 137.883 61.2618 138.822 61.0592C138.872 61.1688 138.879 61.2509 138.844 61.3052C138.803 61.3368 138.805 61.396 138.85 61.4828C139.038 61.5662 139.235 61.6837 139.439 61.8354C139.638 61.9644 139.837 62.0933 140.036 62.2223C140.235 62.3512 140.429 62.4573 140.617 62.5407C140.823 62.5968 141.038 62.5915 141.263 62.5249C141.398 62.6898 141.505 62.884 141.582 63.1077C141.677 63.3042 141.705 63.5252 141.667 63.7708C141.358 64.0918 141.052 64.4242 140.748 64.7681C140.44 65.0891 140.102 65.3917 139.736 65.6758C139.394 65.9556 139.008 66.2078 138.58 66.4323C138.17 66.6297 137.686 66.7696 137.128 66.852C137.013 66.8739 136.921 66.8915 136.852 66.9046C136.805 66.9134 136.728 66.8923 136.62 66.8415C136.463 66.9906 136.206 67.0752 135.85 67.0954C135.517 67.1112 135.272 67.1936 135.115 67.3427C134.834 67.2769 134.513 67.2905 134.15 67.3835C133.804 67.4493 133.483 67.4628 133.185 67.4243C132.93 67.9733 132.718 68.55 132.548 69.1543C132.379 69.7586 132.252 70.3906 132.168 71.0502C132.978 71.0151 133.633 70.9379 134.134 70.8186C134.658 70.695 135.145 70.5665 135.595 70.4332C136.039 70.2771 136.498 70.1301 136.97 69.9925C137.438 69.8319 138.042 69.6929 138.785 69.5754C139.185 69.2369 139.689 68.9742 140.294 68.7874C140.917 68.5734 141.472 68.3247 141.958 68.0414C142.158 68.0747 142.349 68.1695 142.531 68.3256C142.707 68.4589 142.871 68.5944 143.024 68.7321C143.195 68.8427 143.363 68.9418 143.528 69.0295C143.693 69.1172 143.877 69.1299 144.078 69.0676C144.192 69.1413 144.277 69.2444 144.332 69.3768C144.405 69.4821 144.467 69.5895 144.517 69.6992C144.567 69.8088 144.626 69.9048 144.694 69.9873C144.779 70.0425 144.888 70.0456 145.021 69.9965C144.854 70.8148 144.589 71.4731 144.226 71.9713C143.88 72.4423 143.444 72.8352 142.917 73.1501C142.39 73.465 141.783 73.7474 141.097 73.9973C140.433 74.2429 139.694 74.5267 138.88 74.8485C138.684 74.9336 138.509 74.9551 138.354 74.913C138.205 74.8937 138.039 74.9016 137.854 74.9367C137.352 75.1516 136.743 75.3748 136.028 75.6063C135.313 75.8379 134.573 76.0146 133.808 76.1365C133.042 76.2584 132.293 76.2939 131.559 76.243C130.83 76.215 130.196 76.0259 129.656 75.676C129.434 75.5514 129.264 75.3931 129.146 75.201C129.046 74.9817 128.855 74.8392 128.575 74.7734C128.482 74.4813 128.357 74.1594 128.202 73.8077C128.046 73.456 127.888 73.0929 127.727 72.7184C127.56 72.321 127.408 71.9329 127.27 71.554C127.155 71.1707 127.094 70.8128 127.088 70.4804C127.076 70.1252 127.141 69.791 127.283 69.4779C127.448 69.1604 127.459 68.8486 127.314 68.5425C127.423 68.4977 127.479 68.4276 127.48 68.332C127.476 68.2136 127.558 68.1504 127.724 68.1425C127.765 67.7057 127.823 67.2895 127.897 66.894C127.972 66.4984 128.049 66.1142 128.129 65.7415C128.232 65.3643 128.324 64.9894 128.404 64.6166C128.501 64.2166 128.579 63.7847 128.638 63.3207C128.245 63.0856 127.928 62.8124 127.685 62.501C127.461 62.1624 127.273 61.8287 127.123 61.4998C126.967 61.1481 126.823 60.7942 126.691 60.4381C126.553 60.0592 126.38 59.6868 126.173 59.3211C126.322 58.9351 126.534 58.6089 126.807 58.3422C127.098 58.0484 127.424 57.7958 127.782 57.5844C128.141 57.3731 128.54 57.1779 128.979 56.999C129.418 56.8201 129.877 56.6253 130.357 56.4148C131.207 55.943 131.97 55.5593 132.646 55.2637C133.345 54.9637 134.029 54.7024 134.698 54.4796C135.385 54.2296 136.097 53.9867 136.836 53.7507C137.574 53.5148 138.405 53.2135 139.328 52.8469C139.584 53.0127 139.804 53.078 139.988 53.043C140.032 52.8202 140.122 52.7434 140.259 52.8127C140.413 52.8548 140.454 52.7755 140.383 52.5746C140.705 52.9184 141.071 53.1943 141.481 53.4022C141.909 53.5828 142.364 53.7227 142.844 53.8219ZM143.485 57.7399C143.532 57.2303 143.688 56.7716 143.953 56.3637C144.24 55.9515 144.564 55.5919 144.924 55.2849C145.302 54.9507 145.702 54.66 146.125 54.4126C146.547 54.1653 146.952 53.9451 147.34 53.7522C148.169 53.1891 149.061 52.6379 150.016 52.0985C150.988 51.5319 151.983 51.0087 153 50.5289C154.04 50.0448 155.128 49.6589 156.263 49.3712C157.392 49.0607 158.634 48.9673 159.987 49.091C160.11 49.3059 160.265 49.5028 160.452 49.6817C160.638 49.8607 160.825 50.0396 161.012 50.2185C161.222 50.3931 161.409 50.572 161.572 50.7553C161.731 50.9158 161.846 51.0965 161.918 51.2974C162.197 51.4588 162.435 51.6517 162.632 51.8763C162.825 52.078 162.921 52.3815 162.921 52.7867C162.734 53.013 162.544 53.2279 162.352 53.4314C162.177 53.6077 161.976 53.7769 161.75 53.9392C160.85 53.8962 159.97 53.9922 159.111 54.2273C158.253 54.4623 157.483 54.6685 156.804 54.8456C156.548 54.6798 156.27 54.6255 155.971 54.6825C155.694 54.7351 155.406 54.8377 155.105 54.9903C154.828 55.1385 154.538 55.289 154.238 55.4416C153.96 55.5898 153.678 55.6674 153.391 55.6744C153.204 55.9007 152.946 56.081 152.616 56.2152C152.305 56.3222 151.959 56.4357 151.578 56.5559C151.582 56.6743 151.624 56.7497 151.704 56.7822C151.779 56.7918 151.806 56.8581 151.787 56.9809C151.963 57.1142 152.163 57.1953 152.387 57.2243C152.633 57.2488 152.879 57.2734 153.126 57.2979C153.395 57.3181 153.636 57.3677 153.847 57.4466C154.053 57.5028 154.217 57.6383 154.341 57.8532C154.686 57.7874 155.004 57.8102 155.295 57.9216C155.586 58.033 155.84 58.1874 156.055 58.3847C156.27 58.5821 156.445 58.811 156.579 59.0715C156.73 59.3048 156.83 59.5241 156.879 59.7293C156.991 59.8986 157.091 59.9631 157.178 59.9227C157.264 59.8824 157.379 59.9083 157.521 60.0004C157.66 60.2837 157.906 60.5586 158.258 60.8253C158.605 61.0691 158.902 61.3581 159.15 61.6923C159.331 62.2536 159.487 62.7602 159.618 63.2119C159.744 63.6408 159.769 64.1008 159.693 64.592C159.548 65.5016 159.243 66.3462 158.778 67.1259C158.336 67.9013 157.786 68.6258 157.128 69.2994C156.487 69.9458 155.773 70.5347 154.984 71.0663C154.196 71.5978 153.417 72.0679 152.648 72.4766C152.55 72.4713 152.458 72.4889 152.371 72.5292C152.285 72.5696 152.248 72.5169 152.262 72.3713C152.115 72.5661 151.933 72.7081 151.713 72.7976C151.517 72.8827 151.289 72.9379 151.031 72.9634C150.777 73.0116 150.51 73.0506 150.228 73.0805C149.969 73.1059 149.73 73.1633 149.511 73.2528C149.312 73.1239 149.124 72.9927 148.948 72.8594C148.801 72.7445 148.665 72.5796 148.542 72.3647C148.427 72.3866 148.356 72.3406 148.329 72.2266C148.325 72.1082 148.277 72.0577 148.185 72.0753C148.269 71.8209 148.297 71.6845 148.268 71.6661C148.257 71.6205 148.215 71.5929 148.14 71.5832C148.089 71.5692 148.037 71.5551 147.986 71.5411C147.929 71.5043 147.904 71.4495 147.911 71.3767C147.96 71.1767 147.946 70.9649 147.868 70.7412C147.786 70.4947 147.703 70.2483 147.621 70.0018C147.538 69.7553 147.493 69.5137 147.485 69.2769C147.5 69.0357 147.629 68.8203 147.873 68.6309C148.678 68.573 149.409 68.4099 150.067 68.1415C150.743 67.8459 151.359 67.5021 151.916 67.1101C152.473 66.718 152.99 66.3097 153.466 65.8852C153.966 65.4563 154.463 65.0638 154.956 64.7077C154.976 64.4893 155.028 64.3007 155.11 64.142C155.216 63.9788 155.324 63.8271 155.436 63.6868C155.547 63.5464 155.644 63.3969 155.726 63.2381C155.809 63.0794 155.849 62.893 155.846 62.679C155.831 62.515 155.764 62.4325 155.643 62.4316C155.54 62.4036 155.473 62.3211 155.44 62.1843L155.036 62.154C154.539 61.9865 153.995 61.8755 153.405 61.8212C152.809 61.744 152.291 61.64 151.851 61.5093C151.63 61.6944 151.396 61.7746 151.15 61.7501C150.927 61.7211 150.634 61.7053 150.272 61.7027C149.479 61.8062 148.7 61.8711 147.936 61.8974C147.196 61.9193 146.456 61.8456 145.718 61.6763C145.645 61.5711 145.563 61.4794 145.472 61.4014C145.382 61.3233 145.25 61.3246 145.076 61.4053C144.895 61.2492 144.716 61.1045 144.54 60.9711C144.359 60.815 144.186 60.6453 144.022 60.462C144.003 60.1795 143.984 59.9449 143.964 59.7581C143.938 59.5485 143.823 59.3678 143.619 59.216C143.64 58.902 143.653 58.6494 143.655 58.4582C143.658 58.267 143.601 58.0276 143.485 57.7399ZM159.889 54.6154C159.937 54.1058 160.093 53.6471 160.357 53.2393C160.644 52.827 160.968 52.4674 161.328 52.1604C161.706 51.8263 162.106 51.5355 162.529 51.2882C162.952 51.0408 163.357 50.8207 163.744 50.6277C164.573 50.0646 165.465 49.5134 166.42 48.974C167.392 48.4074 168.387 47.8842 169.404 47.4045C170.445 46.9203 171.532 46.5344 172.667 46.2467C173.797 45.9363 175.038 45.8429 176.391 45.9665C176.514 46.1814 176.669 46.3784 176.856 46.5573C177.043 46.7362 177.229 46.9151 177.416 47.0941C177.626 47.2686 177.813 47.4476 177.977 47.6309C178.135 47.7914 178.25 47.9721 178.322 48.1729C178.601 48.3343 178.839 48.5273 179.037 48.7518C179.229 48.9536 179.325 49.257 179.325 49.6623C179.138 49.8885 178.948 50.1034 178.756 50.3069C178.581 50.4832 178.381 50.6525 178.155 50.8147C177.254 50.7718 176.374 50.8678 175.516 51.1028C174.657 51.3379 173.888 51.544 173.208 51.7212C172.952 51.5554 172.674 51.501 172.375 51.558C172.099 51.6106 171.81 51.7133 171.51 51.8659C171.232 52.0141 170.943 52.1645 170.642 52.3171C170.364 52.4653 170.082 52.543 169.795 52.55C169.608 52.7763 169.35 52.9565 169.021 53.0907C168.709 53.1977 168.363 53.3113 167.983 53.4314C167.987 53.5499 168.029 53.6253 168.108 53.6577C168.183 53.6674 168.211 53.7336 168.192 53.8564C168.368 53.9897 168.567 54.0709 168.791 54.0998C169.037 54.1244 169.284 54.1489 169.53 54.1735C169.8 54.1937 170.04 54.2432 170.251 54.3222C170.457 54.3783 170.622 54.5138 170.745 54.7287C171.09 54.6629 171.408 54.6857 171.7 54.7971C171.991 54.9085 172.244 55.0629 172.459 55.2603C172.674 55.4576 172.849 55.6865 172.983 55.947C173.135 56.1803 173.235 56.3996 173.283 56.6049C173.396 56.7741 173.495 56.8386 173.582 56.7983C173.669 56.7579 173.783 56.7838 173.925 56.8759C174.065 57.1592 174.31 57.4342 174.662 57.7008C175.009 57.9447 175.306 58.2337 175.554 58.5678C175.735 59.1292 175.891 59.6357 176.023 60.0874C176.148 60.5163 176.173 60.9764 176.097 61.4675C175.952 62.3771 175.647 63.2217 175.182 64.0015C174.741 64.7768 174.191 65.5013 173.532 66.1749C172.891 66.8213 172.177 67.4103 171.388 67.9418C170.6 68.4733 169.821 68.9434 169.052 69.3521C168.954 69.3469 168.862 69.3644 168.776 69.4048C168.689 69.4451 168.652 69.3925 168.666 69.2469C168.52 69.4416 168.337 69.5837 168.117 69.6732C167.921 69.7582 167.694 69.8135 167.435 69.8389C167.182 69.8872 166.914 69.9262 166.632 69.956C166.374 69.9814 166.135 70.0389 165.915 70.1283C165.716 69.9994 165.529 69.8683 165.353 69.735C165.205 69.6201 165.07 69.4552 164.947 69.2403C164.831 69.2622 164.76 69.2161 164.733 69.1021C164.729 68.9837 164.681 68.9333 164.589 68.9508C164.673 68.6965 164.701 68.5601 164.673 68.5416C164.662 68.496 164.619 68.4684 164.545 68.4588C164.493 68.4447 164.442 68.4307 164.39 68.4167C164.333 68.3798 164.308 68.325 164.315 68.2522C164.364 68.0522 164.35 67.8404 164.273 67.6167C164.19 67.3703 164.108 67.1238 164.025 66.8773C163.943 66.6309 163.897 66.3892 163.889 66.1524C163.904 65.9112 164.034 65.6959 164.277 65.5064C165.082 65.4486 165.813 65.2854 166.472 65.017C167.147 64.7215 167.764 64.3777 168.32 63.9856C168.877 63.5935 169.394 63.1853 169.871 62.7607C170.371 62.3319 170.867 61.9394 171.36 61.5833C171.38 61.3649 171.432 61.1763 171.515 61.0175C171.62 60.8544 171.729 60.7027 171.84 60.5623C171.951 60.422 172.048 60.2724 172.13 60.1137C172.213 59.9549 172.253 59.7685 172.251 59.5545C172.236 59.3905 172.168 59.3081 172.047 59.3072C171.945 59.2791 171.877 59.1967 171.844 59.0598L171.44 59.0296C170.943 58.862 170.4 58.7511 169.809 58.6967C169.213 58.6195 168.695 58.5156 168.255 58.3849C168.034 58.5699 167.801 58.6502 167.554 58.6256C167.331 58.5967 167.038 58.5809 166.677 58.5783C165.883 58.6817 165.104 58.7466 164.341 58.7729C163.6 58.7949 162.86 58.7212 162.122 58.5519C162.049 58.4466 161.967 58.355 161.877 58.2769C161.786 58.1988 161.654 58.2002 161.481 58.2808C161.299 58.1247 161.12 57.98 160.944 57.8467C160.763 57.6905 160.59 57.5208 160.427 57.3375C160.408 57.0551 160.388 56.8205 160.368 56.6336C160.342 56.424 160.227 56.2433 160.023 56.0916C160.045 55.7776 160.057 55.525 160.06 55.3338C160.062 55.1426 160.006 54.9031 159.889 54.6154ZM194.095 44.0604C194.156 44.2156 194.185 44.3411 194.184 44.4367C194.2 44.5051 194.205 44.5757 194.198 44.6485C194.214 44.7169 194.233 44.7967 194.255 44.8879C194.271 44.9564 194.321 45.066 194.405 45.2169C194.106 46.0843 193.669 46.7277 193.094 47.1469C192.538 47.539 191.907 47.8736 191.203 48.1507C190.493 48.4051 189.763 48.6752 189.013 48.9611C188.285 49.2427 187.596 49.6838 186.944 50.2847C186.618 50.2276 186.342 50.2803 186.116 50.4425C185.912 50.6004 185.575 50.7004 185.104 50.7425C184.998 50.9056 184.85 51.0411 184.659 51.149C184.462 51.2341 184.269 51.3306 184.078 51.4384C184.219 51.6261 184.304 51.8362 184.336 52.0686C184.384 52.2739 184.459 52.4383 184.561 52.562C185.383 52.4769 186.267 52.2967 187.212 52.0213C188.18 51.7415 189.134 51.5003 190.072 51.2977C190.122 51.4074 190.13 51.4894 190.095 51.5438C190.054 51.5753 190.056 51.6346 190.101 51.7214C190.289 51.8047 190.485 51.9222 190.69 52.074C190.889 52.2029 191.088 52.3319 191.287 52.4608C191.486 52.5897 191.679 52.6959 191.868 52.7792C192.073 52.8353 192.289 52.8301 192.514 52.7634C192.649 52.9283 192.755 53.1226 192.832 53.3462C192.927 53.5427 192.955 53.7638 192.917 54.0093C192.609 54.3304 192.302 54.6628 191.999 55.0066C191.69 55.3276 191.353 55.6302 190.987 55.9144C190.644 56.1942 190.259 56.4463 189.831 56.6709C189.421 56.8682 188.936 57.0081 188.378 57.0905C188.263 57.1125 188.171 57.13 188.102 57.1432C188.056 57.1519 187.979 57.1309 187.871 57.08C187.713 57.2291 187.457 57.3137 187.101 57.3339C186.767 57.3497 186.522 57.4321 186.365 57.5812C186.085 57.5155 185.763 57.529 185.4 57.622C185.055 57.6878 184.733 57.7014 184.435 57.6628C184.181 58.2119 183.968 58.7885 183.799 59.3929C183.629 59.9972 183.503 60.6291 183.418 61.2887C184.228 61.2536 184.884 61.1765 185.385 61.0572C185.909 60.9335 186.396 60.805 186.846 60.6717C187.29 60.5156 187.748 60.3687 188.221 60.231C188.688 60.0705 189.293 59.9315 190.035 59.814C190.436 59.4754 190.939 59.2127 191.545 59.0259C192.168 58.8119 192.722 58.5632 193.209 58.2799C193.409 58.3133 193.6 58.408 193.781 58.5641C193.957 58.6975 194.122 58.833 194.275 58.9707C194.445 59.0812 194.613 59.1803 194.778 59.268C194.944 59.3557 195.127 59.3685 195.329 59.3062C195.443 59.3799 195.527 59.4829 195.583 59.6154C195.656 59.7206 195.717 59.8281 195.768 59.9377C195.818 60.0473 195.876 60.1434 195.944 60.2258C196.029 60.2811 196.138 60.2842 196.271 60.235C196.104 61.0534 195.839 61.7116 195.476 62.2098C195.131 62.6808 194.695 63.0738 194.168 63.3886C193.641 63.7035 193.034 63.9859 192.347 64.2359C191.684 64.4815 190.945 64.7652 190.131 65.0871C189.934 65.1722 189.759 65.1936 189.605 65.1515C189.456 65.1322 189.289 65.1401 189.105 65.1752C188.602 65.3901 187.994 65.6133 187.279 65.8449C186.563 66.0764 185.823 66.2531 185.058 66.375C184.293 66.4969 183.543 66.5325 182.809 66.4816C182.081 66.4535 181.446 66.2645 180.906 65.9145C180.684 65.79 180.514 65.6316 180.396 65.4395C180.296 65.2203 180.106 65.0777 179.826 65.012C179.732 64.7199 179.608 64.398 179.452 64.0463C179.297 63.6945 179.138 63.3314 178.977 62.9569C178.811 62.5596 178.659 62.1714 178.521 61.7925C178.406 61.4092 178.345 61.0514 178.338 60.719C178.326 60.3637 178.391 60.0296 178.533 59.7164C178.699 59.3989 178.709 59.0871 178.564 58.781C178.674 58.7363 178.73 58.6661 178.731 58.5705C178.727 58.4521 178.808 58.389 178.975 58.3811C179.015 57.9443 179.073 57.5281 179.148 57.1325C179.222 56.7369 179.3 56.3528 179.38 55.98C179.483 55.6029 179.574 55.2279 179.654 54.8551C179.752 54.4552 179.83 54.0232 179.888 53.5592C179.496 53.3241 179.178 53.0509 178.936 52.7396C178.711 52.401 178.524 52.0672 178.374 51.7383C178.218 51.3866 178.074 51.0327 177.941 50.6766C177.803 50.2977 177.631 49.9254 177.424 49.5596C177.573 49.1737 177.784 48.8474 178.058 48.5808C178.349 48.2869 178.674 48.0343 179.033 47.823C179.392 47.6116 179.791 47.4164 180.23 47.2375C180.669 47.0586 181.128 46.8639 181.607 46.6534C182.458 46.1815 183.221 45.7978 183.897 45.5022C184.596 45.2023 185.28 44.9409 185.949 44.7181C186.636 44.4682 187.348 44.2252 188.086 43.9893C188.824 43.7533 189.655 43.4521 190.579 43.0855C190.835 43.2512 191.055 43.3166 191.239 43.2815C191.282 43.0587 191.372 42.982 191.509 43.0513C191.664 43.0934 191.705 43.014 191.633 42.8131C191.955 43.157 192.322 43.4328 192.732 43.6407C193.16 43.8214 193.614 43.9613 194.095 44.0604ZM194.735 47.9784C194.783 47.4688 194.939 47.0101 195.203 46.6023C195.49 46.19 195.814 45.8304 196.174 45.5234C196.552 45.1893 196.953 44.8985 197.375 44.6512C197.798 44.4038 198.203 44.1837 198.59 43.9907C199.419 43.4276 200.311 42.8764 201.266 42.337C202.239 41.7704 203.234 41.2472 204.251 40.7675C205.291 40.2833 206.379 39.8974 207.513 39.6097C208.643 39.2993 209.884 39.2059 211.237 39.3295C211.36 39.5444 211.515 39.7413 211.702 39.9203C211.889 40.0992 212.076 40.2781 212.263 40.4571C212.472 40.6316 212.659 40.8105 212.823 40.9939C212.981 41.1544 213.096 41.3351 213.168 41.5359C213.447 41.6973 213.685 41.8903 213.883 42.1148C214.075 42.3165 214.171 42.62 214.171 43.0252C213.984 43.2515 213.795 43.4664 213.602 43.6699C213.427 43.8462 213.227 44.0155 213.001 44.1777C212.1 44.1348 211.221 44.2308 210.362 44.4658C209.503 44.7009 208.734 44.907 208.054 45.0842C207.798 44.9184 207.521 44.864 207.221 44.921C206.945 44.9736 206.656 45.0762 206.356 45.2289C206.078 45.3771 205.789 45.5275 205.488 45.6801C205.211 45.8283 204.928 45.906 204.641 45.913C204.454 46.1393 204.196 46.3195 203.867 46.4537C203.555 46.5607 203.209 46.6743 202.829 46.7944C202.833 46.9128 202.875 46.9883 202.955 47.0207C203.029 47.0304 203.057 47.0966 203.038 47.2194C203.214 47.3527 203.414 47.4339 203.637 47.4628C203.884 47.4874 204.13 47.5119 204.376 47.5365C204.646 47.5567 204.886 47.6062 205.098 47.6852C205.303 47.7413 205.468 47.8768 205.591 48.0917C205.936 48.0259 206.255 48.0487 206.546 48.1601C206.837 48.2715 207.09 48.4259 207.305 48.6233C207.521 48.8206 207.695 49.0495 207.829 49.31C207.981 49.5433 208.081 49.7626 208.13 49.9679C208.242 50.1371 208.342 50.2016 208.428 50.1613C208.515 50.1209 208.629 50.1468 208.771 50.2389C208.911 50.5222 209.157 50.7972 209.509 51.0638C209.855 51.3077 210.152 51.5967 210.4 51.9308C210.581 52.4922 210.738 52.9987 210.869 53.4504C210.995 53.8793 211.02 54.3394 210.944 54.8305C210.798 55.7401 210.493 56.5847 210.029 57.3645C209.587 58.1398 209.037 58.8643 208.378 59.5379C207.738 60.1843 207.023 60.7733 206.235 61.3048C205.446 61.8363 204.668 62.3064 203.898 62.7151C203.801 62.7099 203.709 62.7274 203.622 62.7678C203.535 62.8081 203.499 62.7555 203.512 62.6099C203.366 62.8046 203.183 62.9467 202.964 63.0361C202.767 63.1212 202.54 63.1765 202.281 63.2019C202.028 63.2501 201.76 63.2892 201.479 63.319C201.22 63.3444 200.981 63.4019 200.761 63.4913C200.562 63.3624 200.375 63.2313 200.199 63.0979C200.051 62.983 199.916 62.8181 199.793 62.6033C199.678 62.6252 199.607 62.5791 199.58 62.4651C199.576 62.3467 199.527 62.2963 199.435 62.3138C199.519 62.0595 199.547 61.9231 199.519 61.9046C199.508 61.859 199.465 61.8314 199.391 61.8218C199.339 61.8077 199.288 61.7937 199.237 61.7797C199.18 61.7428 199.155 61.688 199.161 61.6152C199.21 61.4152 199.196 61.2034 199.119 60.9797C199.036 60.7333 198.954 60.4868 198.871 60.2403C198.789 59.9939 198.744 59.7522 198.735 59.5154C198.75 59.2742 198.88 59.0589 199.124 58.8694C199.928 58.8116 200.659 58.6484 201.318 58.38C201.994 58.0845 202.61 57.7407 203.167 57.3486C203.723 56.9565 204.24 56.5483 204.717 56.1237C205.217 55.6948 205.713 55.3024 206.206 54.9463C206.227 54.7279 206.278 54.5393 206.361 54.3805C206.467 54.2174 206.575 54.0657 206.686 53.9253C206.797 53.785 206.894 53.6354 206.977 53.4767C207.059 53.3179 207.099 53.1315 207.097 52.9175C207.082 52.7535 207.014 52.6711 206.894 52.6702C206.791 52.6421 206.723 52.5597 206.691 52.4228L206.286 52.3926C205.789 52.225 205.246 52.1141 204.655 52.0597C204.059 51.9825 203.542 51.8786 203.101 51.7479C202.881 51.9329 202.647 52.0132 202.401 51.9886C202.177 51.9597 201.885 51.9439 201.523 51.9412C200.729 52.0447 199.951 52.1096 199.187 52.1359C198.446 52.1579 197.707 52.0842 196.969 51.9149C196.896 51.8096 196.814 51.718 196.723 51.6399C196.632 51.5618 196.5 51.5632 196.327 51.6438C196.145 51.4877 195.967 51.343 195.791 51.2097C195.609 51.0535 195.437 50.8838 195.273 50.7005C195.254 50.4181 195.234 50.1835 195.214 49.9966C195.189 49.787 195.073 49.6063 194.869 49.4546C194.891 49.1406 194.903 48.888 194.906 48.6968C194.909 48.5056 194.852 48.2661 194.735 47.9784Z" fill="black"/>
</g>
</svg>
